<?xml version="1.0" encoding="UTF-8" standalone="no"?>
<!-- Created with Inkscape (http://www.inkscape.org/) -->

<svg
   xmlns:osb="http://www.openswatchbook.org/uri/2009/osb"
   xmlns:dc="http://purl.org/dc/elements/1.1/"
   xmlns:cc="http://creativecommons.org/ns#"
   xmlns:rdf="http://www.w3.org/1999/02/22-rdf-syntax-ns#"
   xmlns:svg="http://www.w3.org/2000/svg"
   xmlns="http://www.w3.org/2000/svg"
   xmlns:sodipodi="http://sodipodi.sourceforge.net/DTD/sodipodi-0.dtd"
   xmlns:inkscape="http://www.inkscape.org/namespaces/inkscape"
   width="640"
   height="360"
   viewBox="0 0 640.00001 360"
   preserveAspectRatio="xMidYMid slice"
   id="svg2"
   version="1.1"
   inkscape:version="0.91 r13725"
   sodipodi:docname="Americans-Identify-More-Democratic-Party-Title.svg"
   inkscape:export-filename="C:\Users\Darius\Documents\GitHub\dariuspruss.github.io\dariuspruss.github.io\08-2016\party-affiliation\Americans-Identify-More-Democratic-Party.png"
   inkscape:export-xdpi="90"
   inkscape:export-ydpi="90">
  <defs
     id="defs4">
    <linearGradient
       id="linearGradient5656"
       osb:paint="solid">
      <stop
         style="stop-color:#000000;stop-opacity:1;"
         offset="0"
         id="stop5658" />
    </linearGradient>
    <linearGradient
       id="linearGradient4480"
       osb:paint="solid">
      <stop
         style="stop-color:#212121;stop-opacity:1;"
         offset="0"
         id="stop4482" />
    </linearGradient>
    <linearGradient
       id="linearGradient6325"
       osb:paint="solid">
      <stop
         style="stop-color:#000000;stop-opacity:1;"
         offset="0"
         id="stop6327" />
    </linearGradient>
    <linearGradient
       id="linearGradient4844"
       osb:paint="solid">
      <stop
         style="stop-color:#000000;stop-opacity:1;"
         offset="0"
         id="stop4846" />
    </linearGradient>
    <linearGradient
       id="linearGradient4834"
       osb:paint="solid">
      <stop
         style="stop-color:#212121;stop-opacity:1;"
         offset="0"
         id="stop4836" />
    </linearGradient>
    <linearGradient
       id="linearGradient4828"
       osb:paint="solid">
      <stop
         style="stop-color:#212121;stop-opacity:1;"
         offset="0"
         id="stop4830" />
    </linearGradient>
    <linearGradient
       id="linearGradient4822"
       osb:paint="solid">
      <stop
         style="stop-color:#000000;stop-opacity:1;"
         offset="0"
         id="stop4824" />
    </linearGradient>
    <linearGradient
       id="linearGradient4816"
       osb:paint="solid">
      <stop
         style="stop-color:#000000;stop-opacity:1;"
         offset="0"
         id="stop4818" />
    </linearGradient>
    <linearGradient
       id="linearGradient4797"
       osb:paint="solid">
      <stop
         style="stop-color:#212121;stop-opacity:1;"
         offset="0"
         id="stop4799" />
    </linearGradient>
    <linearGradient
       id="linearGradient4791"
       osb:paint="solid">
      <stop
         style="stop-color:#212121;stop-opacity:1;"
         offset="0"
         id="stop4793" />
    </linearGradient>
    <linearGradient
       id="linearGradient5744"
       osb:paint="solid">
      <stop
         style="stop-color:#000000;stop-opacity:1;"
         offset="0"
         id="stop5746" />
    </linearGradient>
    <linearGradient
       id="linearGradient5738"
       osb:paint="solid">
      <stop
         style="stop-color:#000000;stop-opacity:1;"
         offset="0"
         id="stop5740" />
    </linearGradient>
    <linearGradient
       id="linearGradient5730"
       osb:paint="solid">
      <stop
         style="stop-color:#000000;stop-opacity:1;"
         offset="0"
         id="stop5732" />
    </linearGradient>
    <linearGradient
       id="linearGradient5724"
       osb:paint="solid">
      <stop
         style="stop-color:#000000;stop-opacity:1;"
         offset="0"
         id="stop5726" />
    </linearGradient>
    <linearGradient
       id="linearGradient5708"
       osb:paint="solid">
      <stop
         style="stop-color:#000000;stop-opacity:1;"
         offset="0"
         id="stop5710" />
    </linearGradient>
    <linearGradient
       id="linearGradient5696"
       osb:paint="solid">
      <stop
         style="stop-color:#000000;stop-opacity:1;"
         offset="0"
         id="stop5698" />
    </linearGradient>
    <linearGradient
       id="linearGradient5688"
       osb:paint="solid">
      <stop
         style="stop-color:#212121;stop-opacity:1;"
         offset="0"
         id="stop5690" />
    </linearGradient>
    <linearGradient
       id="linearGradient5678"
       osb:paint="gradient">
      <stop
         style="stop-color:#212121;stop-opacity:1;"
         offset="0"
         id="stop5680" />
      <stop
         style="stop-color:#212121;stop-opacity:0;"
         offset="1"
         id="stop5682" />
    </linearGradient>
    <clipPath
       clipPathUnits="userSpaceOnUse"
       id="clipPath6663">
      <rect
         style="opacity:1;fill:#00897b;fill-opacity:0.56862745;stroke:#212121;stroke-width:0;stroke-linecap:round;stroke-linejoin:round;stroke-miterlimit:4;stroke-dasharray:none"
         id="rect6665"
         width="6091.4678"
         height="1713.2253"
         x="-625.95032"
         y="-2170.1934" />
    </clipPath>
    <filter
       style="color-interpolation-filters:sRGB"
       inkscape:label="Greyscale"
       id="filter6959">
      <feColorMatrix
         values="0.21 0.72 0.072 0.23 0 0.21 0.72 0.072 0.23 0 0.21 0.72 0.072 0.23 0 0 0 0 1 0 "
         id="feColorMatrix6961" />
    </filter>
    <filter
       style="color-interpolation-filters:sRGB"
       inkscape:label="Duochrome"
       id="filter9694">
      <feColorMatrix
         type="luminanceToAlpha"
         result="colormatrix1"
         id="feColorMatrix9696" />
      <feFlood
         flood-opacity="1"
         flood-color="rgb(250,250,250)"
         result="flood1"
         id="feFlood9698" />
      <feComposite
         in2="colormatrix1"
         operator="in"
         result="composite1"
         id="feComposite9700" />
      <feFlood
         flood-opacity="1"
         flood-color="rgb(244,81,30)"
         result="flood2"
         id="feFlood9702" />
      <feComposite
         in2="colormatrix1"
         result="composite2"
         operator="out"
         id="feComposite9704" />
      <feComposite
         in="composite2"
         in2="composite1"
         k2="1"
         k3="1"
         operator="arithmetic"
         result="composite3"
         id="feComposite9706"
         k1="0"
         k4="0" />
      <feColorMatrix
         in="composite3"
         type="matrix"
         values="2 -1 0 0 0 0 2 -1 0 0 -1 0 2 0 0 0 0 0 1 0 "
         result="colormatrix2"
         id="feColorMatrix9708" />
      <feComposite
         in="colormatrix2"
         in2="composite3"
         operator="arithmetic"
         k2="0"
         result="composite4"
         id="feComposite9710"
         k1="0"
         k3="0"
         k4="0" />
      <feBlend
         in="composite4"
         in2="composite3"
         mode="normal"
         result="blend"
         id="feBlend9712" />
      <feComposite
         in2="SourceGraphic"
         operator="in"
         id="feComposite9714" />
    </filter>
    <filter
       style="color-interpolation-filters:sRGB"
       inkscape:label="Duochrome"
       id="filter11102">
      <feColorMatrix
         type="luminanceToAlpha"
         result="colormatrix1"
         id="feColorMatrix11104" />
      <feFlood
         flood-opacity="1"
         flood-color="rgb(250,250,250)"
         result="flood1"
         id="feFlood11106" />
      <feComposite
         in2="colormatrix1"
         operator="in"
         result="composite1"
         id="feComposite11108" />
      <feFlood
         flood-opacity="1"
         flood-color="rgb(244,81,30)"
         result="flood2"
         id="feFlood11110" />
      <feComposite
         in2="colormatrix1"
         result="composite2"
         operator="out"
         id="feComposite11112" />
      <feComposite
         in="composite2"
         in2="composite1"
         k2="1"
         k3="1"
         operator="arithmetic"
         result="composite3"
         id="feComposite11114"
         k1="0"
         k4="0" />
      <feColorMatrix
         in="composite3"
         type="matrix"
         values="2 -1 0 0 0 0 2 -1 0 0 -1 0 2 0 0 0 0 0 1 0 "
         result="colormatrix2"
         id="feColorMatrix11116" />
      <feComposite
         in="colormatrix2"
         in2="composite3"
         operator="arithmetic"
         k2="0"
         result="composite4"
         id="feComposite11118"
         k1="0"
         k3="0"
         k4="0" />
      <feBlend
         in="composite4"
         in2="composite3"
         mode="normal"
         result="blend"
         id="feBlend11120" />
      <feComposite
         in2="SourceGraphic"
         operator="in"
         id="feComposite11122" />
    </filter>
    <filter
       style="color-interpolation-filters:sRGB"
       inkscape:label="Duochrome"
       id="filter11752">
      <feColorMatrix
         type="luminanceToAlpha"
         result="colormatrix1"
         id="feColorMatrix11754" />
      <feFlood
         flood-opacity="1"
         flood-color="rgb(250,250,250)"
         result="flood1"
         id="feFlood11756" />
      <feComposite
         in2="colormatrix1"
         operator="in"
         result="composite1"
         id="feComposite11758" />
      <feFlood
         flood-opacity="1"
         flood-color="rgb(244,81,30)"
         result="flood2"
         id="feFlood11760" />
      <feComposite
         in2="colormatrix1"
         result="composite2"
         operator="out"
         id="feComposite11762" />
      <feComposite
         in="composite2"
         in2="composite1"
         k2="1"
         k3="1"
         operator="arithmetic"
         result="composite3"
         id="feComposite11764"
         k1="0"
         k4="0" />
      <feColorMatrix
         in="composite3"
         type="matrix"
         values="2 -1 0 0 0 0 2 -1 0 0 -1 0 2 0 0 0 0 0 1 0 "
         result="colormatrix2"
         id="feColorMatrix11766" />
      <feComposite
         in="colormatrix2"
         in2="composite3"
         operator="arithmetic"
         k2="0"
         result="composite4"
         id="feComposite11768"
         k1="0"
         k3="0"
         k4="0" />
      <feBlend
         in="composite4"
         in2="composite3"
         mode="normal"
         result="blend"
         id="feBlend11770" />
      <feComposite
         in2="SourceGraphic"
         operator="in"
         id="feComposite11772" />
    </filter>
    <filter
       style="color-interpolation-filters:sRGB"
       inkscape:label="Duochrome"
       id="filter12370">
      <feColorMatrix
         type="luminanceToAlpha"
         result="colormatrix1"
         id="feColorMatrix12372" />
      <feFlood
         flood-opacity="1"
         flood-color="rgb(250,250,250)"
         result="flood1"
         id="feFlood12374" />
      <feComposite
         in2="colormatrix1"
         operator="in"
         result="composite1"
         id="feComposite12376" />
      <feFlood
         flood-opacity="1"
         flood-color="rgb(244,81,30)"
         result="flood2"
         id="feFlood12378" />
      <feComposite
         in2="colormatrix1"
         result="composite2"
         operator="out"
         id="feComposite12380" />
      <feComposite
         in="composite2"
         in2="composite1"
         k2="1"
         k3="1"
         operator="arithmetic"
         result="composite3"
         id="feComposite12382"
         k1="0"
         k4="0" />
      <feColorMatrix
         in="composite3"
         type="matrix"
         values="2 -1 0 0 0 0 2 -1 0 0 -1 0 2 0 0 0 0 0 1 0 "
         result="colormatrix2"
         id="feColorMatrix12384" />
      <feComposite
         in="colormatrix2"
         in2="composite3"
         operator="arithmetic"
         k2="0"
         result="composite4"
         id="feComposite12386"
         k1="0"
         k3="0"
         k4="0" />
      <feBlend
         in="composite4"
         in2="composite3"
         mode="normal"
         result="blend"
         id="feBlend12388" />
      <feComposite
         in2="SourceGraphic"
         operator="in"
         id="feComposite12390" />
    </filter>
    <clipPath
       clipPathUnits="userSpaceOnUse"
       id="clipPath4526">
      <rect
         style="opacity:1;fill:#e0e0e0;fill-opacity:1;stroke:#212121;stroke-width:0;stroke-linecap:round;stroke-linejoin:round;stroke-miterlimit:4;stroke-dasharray:none"
         id="rect4528"
         width="930"
         height="519"
         x="11"
         y="951" />
    </clipPath>
    <clipPath
       clipPathUnits="userSpaceOnUse"
       id="clipPath5945">
      <rect
         y="-3441.3142"
         x="220.47858"
         height="1799.5527"
         width="5996.707"
         id="rect5947"
         style="opacity:1;fill:#00897b;fill-opacity:0.56862745;stroke:#212121;stroke-width:0;stroke-linecap:round;stroke-linejoin:round;stroke-miterlimit:4;stroke-dasharray:none"
         transform="scale(1,-1)" />
    </clipPath>
	    <style type="text/css">
@import 'https://fonts.googleapis.com/css?family=Noto+Sans:400,400i,700|Noto+Serif:400,400i,700';
</style>
  </defs>
  <sodipodi:namedview
     id="base"
     pagecolor="#ffffff"
     bordercolor="#666666"
     borderopacity="1.0"
     inkscape:pageopacity="0.0"
     inkscape:pageshadow="2"
     inkscape:zoom="0.86035156"
     inkscape:cx="570.52167"
     inkscape:cy="97.564263"
     inkscape:document-units="px"
     inkscape:current-layer="layer2"
     showgrid="false"
     units="px"
     inkscape:window-width="1920"
     inkscape:window-height="1017"
     inkscape:window-x="-8"
     inkscape:window-y="-8"
     inkscape:window-maximized="1"
     showguides="false" />
  <metadata
     id="metadata7">
    <rdf:RDF>
      <cc:Work
         rdf:about="">
        <dc:format>image/svg+xml</dc:format>
        <dc:type
           rdf:resource="http://purl.org/dc/dcmitype/StillImage" />
        <dc:title></dc:title>
      </cc:Work>
    </rdf:RDF>
  </metadata>
  <g
     inkscape:label="Layer 1"
     inkscape:groupmode="layer"
     id="layer1"
     transform="translate(0,-692.36216)">
    <rect
       y="692.36218"
       x="4.9999999e-006"
       height="360"
       width="640"
       id="rect4474"
       style="opacity:1;fill:#fafafa;fill-opacity:1;stroke:#212121;stroke-width:0;stroke-linecap:round;stroke-linejoin:round;stroke-miterlimit:4;stroke-dasharray:none" />
    <g
       style="stroke-width:9.51791859;stroke-miterlimit:4;stroke-dasharray:none"
       type="COMPO"
       id="CompositeShape_8"
       transform="matrix(0,-0.10506499,0.10506499,0,65.765463,988.30748)" />
    <g
       style="stroke-width:9.51791859;stroke-miterlimit:4;stroke-dasharray:none"
       type="COMPO"
       id="CompositeShape_13"
       transform="matrix(0,-0.10506499,0.10506499,0,65.765463,988.30748)" />
    <g
       style="stroke-width:9.51791859;stroke-miterlimit:4;stroke-dasharray:none"
       type="COMPO"
       id="CompositeShape_7"
       transform="matrix(0,-0.10506499,0.10506499,0,65.765463,988.30748)" />
    <g
       style="stroke-width:9.51791859;stroke-miterlimit:4;stroke-dasharray:none"
       type="COMPO"
       id="CompositeShape_19"
       transform="matrix(0,-0.10506499,0.10506499,0,65.765463,988.30748)" />
    <g
       style="stroke-width:9.51791859;stroke-miterlimit:4;stroke-dasharray:none"
       type="COMPO"
       id="CompositeShape_24"
       transform="matrix(0,-0.10506499,0.10506499,0,65.765463,988.30748)" />
    <g
       style="stroke-width:9.51791859;stroke-miterlimit:4;stroke-dasharray:none"
       type="COMPO"
       id="CompositeShape_25"
       transform="matrix(0,-0.10506499,0.10506499,0,65.765463,988.30748)" />
    <g
       style="stroke-width:9.51791859;stroke-miterlimit:4;stroke-dasharray:none"
       type="COMPO"
       id="CompositeShape_27"
       transform="matrix(0,-0.10506499,0.10506499,0,65.765463,988.30748)" />
    <g
       style="stroke-width:9.51791859;stroke-miterlimit:4;stroke-dasharray:none"
       type="COMPO"
       id="CompositeShape_28"
       transform="matrix(0,-0.10506499,0.10506499,0,65.765463,988.30748)" />
    <g
       style="stroke-width:9.51791859;stroke-miterlimit:4;stroke-dasharray:none"
       type="COMPO"
       id="CompositeShape_29"
       transform="matrix(0,-0.10506499,0.10506499,0,65.765463,988.30748)" />
    <g
       style="stroke-width:9.51791859;stroke-miterlimit:4;stroke-dasharray:none"
       type="COMPO"
       id="CompositeShape_30"
       transform="matrix(0,-0.10506499,0.10506499,0,65.765463,988.30748)" />
    <g
       style="stroke-width:9.51791859;stroke-miterlimit:4;stroke-dasharray:none"
       type="COMPO"
       id="CompositeShape_31"
       transform="matrix(0,-0.10506499,0.10506499,0,65.765463,988.30748)" />
    <g
       style="stroke-width:9.51791859;stroke-miterlimit:4;stroke-dasharray:none"
       type="COMPO"
       id="CompositeShape_32"
       transform="matrix(0,-0.10506499,0.10506499,0,65.765463,988.30748)" />
    <g
       style="stroke-width:9.51791859;stroke-miterlimit:4;stroke-dasharray:none"
       type="COMPO"
       id="CompositeShape_33"
       transform="matrix(0,-0.10506499,0.10506499,0,65.765463,988.30748)" />
    <g
       style="stroke-width:9.51791859;stroke-miterlimit:4;stroke-dasharray:none"
       type="COMPO"
       id="CompositeShape_34"
       transform="matrix(0,-0.10506499,0.10506499,0,65.765463,988.30748)" />
    <g
       style="stroke-width:9.51791859;stroke-miterlimit:4;stroke-dasharray:none"
       type="COMPO"
       id="CompositeShape_35"
       transform="matrix(0,-0.10506499,0.10506499,0,65.765463,988.30748)" />
    <g
       style="stroke-width:9.51791859;stroke-miterlimit:4;stroke-dasharray:none"
       type="COMPO"
       id="CompositeShape_36"
       transform="matrix(0,-0.10506499,0.10506499,0,65.765463,988.30748)" />
    <g
       style="stroke-width:9.51791859;stroke-miterlimit:4;stroke-dasharray:none"
       type="COMPO"
       id="CompositeShape_37"
       transform="matrix(0,-0.10506499,0.10506499,0,65.765463,988.30748)" />
    <g
       style="stroke-width:9.51791859;stroke-miterlimit:4;stroke-dasharray:none"
       type="COMPO"
       id="CompositeShape_38"
       transform="matrix(0,-0.10506499,0.10506499,0,65.765463,988.30748)" />
    <g
       clip-path="url(#clipPath5945)"
       style="fill:#000000;stroke:none;stroke-width:9.51791859;stroke-miterlimit:4;stroke-dasharray:none;filter:url(#filter12370)"
       transform="matrix(0.10002486,0,0,-0.10002486,-2.0533281,1036.579)"
       id="g11778">
      <path
         inkscape:connector-curvature="0"
         d="m 570,3580 c -9,-17 -8,-20 12,-21 13,-1 27,-1 31,0 23,4 47,-22 47,-49 0,-20 5,-30 15,-30 19,0 33,32 17,38 -7,2 -12,8 -12,13 0,6 4,8 9,5 9,-6 41,36 41,54 0,6 -30,10 -75,10 -64,0 -76,-3 -85,-20 z"
         id="path11780" />
      <path
         inkscape:connector-curvature="0"
         d="m 1210,3588 c 0,-7 4,-29 9,-48 5,-19 12,-62 15,-96 5,-67 25,-152 36,-159 4,-2 16,5 26,16 16,18 17,22 3,47 -9,15 -22,54 -29,87 -7,33 -16,74 -20,90 -4,17 -3,40 1,53 7,19 5,22 -16,22 -14,0 -25,-6 -25,-12 z"
         id="path11782" />
      <path
         inkscape:connector-curvature="0"
         d="m 3486,3527 c 2,-99 1,-96 28,-106 24,-10 36,-56 36,-137 0,-26 4,-34 18,-34 15,0 17,15 17,175 l 0,175 -50,0 -50,0 1,-73 z"
         id="path11784" />
      <path
         inkscape:connector-curvature="0"
         d="m 3950,3585 c 0,-8 8,-19 19,-24 21,-11 33,-65 18,-80 -13,-13 0,-31 22,-31 16,0 19,10 20,75 l 1,75 -40,0 c -28,0 -40,-4 -40,-15 z"
         id="path11786" />
      <path
         inkscape:connector-curvature="0"
         d="m 4177,3593 c -10,-17 -17,-81 -11,-97 3,-9 14,-16 24,-16 32,0 53,-36 51,-88 -2,-60 -8,-82 -43,-157 -6,-14 -9,-28 -5,-31 7,-7 39,10 39,22 0,5 9,20 19,32 l 18,24 7,-25 c 6,-28 32,-43 47,-28 5,5 6,20 1,32 -16,51 -6,139 16,139 5,0 6,-7 3,-17 -4,-11 -3,-14 5,-9 7,4 11,26 10,51 -2,26 1,44 7,42 6,-1 9,-30 8,-67 -2,-63 -1,-66 36,-101 28,-27 42,-34 52,-27 11,7 11,11 2,15 -18,7 -16,24 4,38 15,11 15,17 5,40 -10,21 -10,30 -1,42 10,11 9,21 -5,44 -10,17 -16,32 -14,35 3,2 27,5 54,7 63,4 77,12 64,37 -6,10 -6,21 -2,24 5,3 13,-13 19,-35 6,-22 6,-42 2,-45 -14,-8 -11,-40 5,-53 10,-8 13,-23 9,-47 -5,-31 -4,-34 21,-34 33,0 34,-18 1,-30 -27,-10 -32,-29 -13,-48 19,-19 45,-14 51,9 4,16 12,20 39,17 27,-2 34,-8 36,-30 6,-47 25,-51 62,-13 33,34 33,35 23,87 -13,62 -29,128 -42,178 -6,19 -13,47 -16,63 l -5,27 -178,0 c -195,0 -225,-7 -241,-52 -12,-34 -28,-36 -42,-5 -18,39 -107,75 -122,50 z"
         id="path11788" />
      <path
         inkscape:connector-curvature="0"
         d="m 5084,3505 c 1,-80 3,-95 17,-95 12,0 18,13 22,51 5,36 13,56 27,66 40,28 18,73 -35,73 l -31,0 0,-95 z"
         id="path11790" />
      <path
         inkscape:connector-curvature="0"
         d="m 5210,3571 c 0,-37 16,-49 63,-49 47,0 47,-1 54,-51 l 6,-40 -33,9 -32,9 4,-34 c 5,-43 -8,-49 -64,-29 -61,22 -198,3 -198,-27 0,-5 -6,-6 -13,-3 -14,5 -122,-61 -149,-92 -10,-12 -18,-43 -21,-84 -5,-65 -5,-65 10,-30 8,19 20,38 25,41 6,4 8,17 5,30 -7,28 21,56 87,88 39,18 65,22 157,22 64,1 109,5 109,11 0,5 7,2 16,-6 8,-9 21,-16 28,-16 7,0 34,-14 62,-32 27,-17 55,-33 62,-34 11,-2 18,35 13,73 -1,6 3,14 9,18 5,3 10,-1 10,-9 0,-9 6,-13 13,-10 18,7 39,-20 31,-40 -3,-9 -14,-16 -24,-16 -10,0 -20,-7 -24,-15 -8,-22 14,-77 29,-71 16,6 35,-13 35,-35 0,-9 6,-22 14,-28 24,-20 35,10 35,95 0,44 5,93 12,109 20,47 18,67 -8,108 -27,43 -51,56 -64,36 -6,-10 -9,-8 -9,10 0,13 11,38 24,55 20,27 22,35 11,49 -10,15 -31,17 -149,17 l -136,0 0,-29 z m 117,-193 c -3,-8 -6,-5 -6,6 -1,11 2,17 5,13 3,-3 4,-12 1,-19 z m -26,-33 c 17,-13 42,-39 57,-57 16,-20 3,-12 -33,21 -33,30 -62,56 -64,58 -2,2 -1,3 3,3 5,0 21,-11 37,-25 z"
         id="path11792" />
      <path
         inkscape:connector-curvature="0"
         d="m 280,3583 c 1,-10 50,-47 50,-38 0,17 -22,45 -35,45 -8,0 -15,-3 -15,-7 z"
         id="path11794" />
      <path
         inkscape:connector-curvature="0"
         d="m 1623,3554 c 0,-16 13,-19 21,-5 3,5 0,11 -7,14 -8,3 -14,-1 -14,-9 z"
         id="path11796" />
      <path
         inkscape:connector-curvature="0"
         d="m 3398,3538 c -17,-6 -28,-17 -28,-28 0,-10 -5,-20 -11,-22 -7,-2 -4,-24 9,-63 12,-36 23,-102 26,-165 7,-117 14,-162 26,-155 4,3 11,25 15,51 3,25 9,56 12,67 3,12 7,58 8,102 2,44 6,99 10,122 4,26 3,47 -4,55 -7,7 -17,20 -24,29 -9,13 -18,15 -39,7 z"
         id="path11798" />
      <path
         inkscape:connector-curvature="0"
         d="m 3701,3521 c -21,-29 -19,-59 6,-96 16,-24 18,-151 2,-161 -8,-5 -8,-9 1,-14 6,-4 16,-45 22,-91 11,-92 19,-109 48,-102 18,5 20,12 15,77 -7,116 -8,289 -1,326 5,27 2,40 -13,58 -30,34 -57,36 -80,3 z"
         id="path11800" />
      <path
         inkscape:connector-curvature="0"
         d="m 855,3530 c 3,-5 8,-10 11,-10 2,0 4,5 4,10 0,6 -5,10 -11,10 -5,0 -7,-4 -4,-10 z"
         id="path11802" />
      <path
         inkscape:connector-curvature="0"
         d="m 650,3426 c 0,-9 5,-16 10,-16 6,0 10,4 10,9 0,6 -4,13 -10,16 -5,3 -10,-1 -10,-9 z"
         id="path11804" />
      <path
         inkscape:connector-curvature="0"
         d="m 1407,3386 c 3,-14 11,-30 19,-37 10,-9 12,-6 9,12 -3,13 -11,29 -19,37 -12,12 -13,10 -9,-12 z"
         id="path11806" />
      <path
         inkscape:connector-curvature="0"
         d="m 625,3390 c 28,-12 57,-12 50,0 -3,6 -21,10 -38,9 -27,0 -29,-2 -12,-9 z"
         id="path11808" />
      <path
         inkscape:connector-curvature="0"
         d="m 4115,3361 c -4,-17 -11,-33 -16,-36 -22,-14 9,-131 34,-122 6,2 19,25 29,51 22,63 13,130 -19,134 -17,2 -23,-3 -28,-27 z"
         id="path11810" />
      <path
         inkscape:connector-curvature="0"
         d="m 4581,3375 c 0,-12 -6,-26 -13,-33 -9,-9 -7,-13 5,-18 9,-3 14,-11 10,-18 -4,-6 1,-5 10,3 11,9 14,18 8,25 -5,6 -11,22 -14,36 -3,20 -5,21 -6,5 z"
         id="path11812" />
      <path
         inkscape:connector-curvature="0"
         d="m 2113,3335 c -3,-9 -3,-18 0,-21 9,-9 27,6 27,22 0,19 -19,18 -27,-1 z"
         id="path11814" />
      <path
         inkscape:connector-curvature="0"
         d="m 3981,3298 c 0,-7 4,-22 8,-33 8,-19 8,-19 20,3 7,12 9,27 6,32 -9,14 -35,12 -34,-2 z"
         id="path11816" />
      <path
         inkscape:connector-curvature="0"
         d="m 1925,3273 c 7,-13 23,-34 36,-47 13,-12 48,-49 78,-80 l 53,-57 -6,38 -6,38 14,-30 c 8,-16 15,-24 15,-16 3,43 -77,147 -106,139 -4,-1 -26,7 -49,18 l -41,21 12,-24 z"
         id="path11818" />
      <path
         inkscape:connector-curvature="0"
         d="m 2070,3275 c -9,-10 -10,-19 -3,-26 14,-14 45,0 41,19 -4,22 -23,25 -38,7 z"
         id="path11820" />
      <path
         inkscape:connector-curvature="0"
         d="m 3480,3261 c 0,-16 -2,-35 -5,-43 -3,-7 1,-22 10,-33 20,-28 33,-6 33,57 1,41 -2,48 -19,48 -14,0 -19,-7 -19,-29 z"
         id="path11822" />
      <path
         inkscape:connector-curvature="0"
         d="m 4537,3240 c -3,-13 0,-20 9,-20 15,0 19,26 5,34 -5,3 -11,-3 -14,-14 z"
         id="path11824" />
      <path
         inkscape:connector-curvature="0"
         d="m 1288,3243 c 6,-2 18,-2 25,0 6,3 1,5 -13,5 -14,0 -19,-2 -12,-5 z"
         id="path11826" />
      <path
         inkscape:connector-curvature="0"
         d="m 4795,3220 c -17,-19 -11,-28 10,-12 10,7 19,32 12,32 -2,0 -12,-9 -22,-20 z"
         id="path11828" />
      <path
         inkscape:connector-curvature="0"
         d="m 4380,3226 c 0,-11 43,-76 50,-76 5,0 17,-3 27,-6 14,-4 13,-2 -3,8 -12,7 -19,19 -17,26 3,7 -1,11 -8,10 -8,-2 -15,7 -17,20 -2,12 -10,22 -18,22 -8,0 -14,-2 -14,-4 z"
         id="path11830" />
      <path
         inkscape:connector-curvature="0"
         d="m 4027,3214 c -16,-16 -7,-44 14,-44 15,0 20,5 17,22 -3,22 -19,33 -31,22 z"
         id="path11832" />
      <path
         inkscape:connector-curvature="0"
         d="m 4284,3195 c -8,-20 4,-35 27,-35 14,0 19,7 19,25 0,18 -5,25 -20,25 -11,0 -23,-7 -26,-15 z"
         id="path11834" />
      <path
         inkscape:connector-curvature="0"
         d="m 4503,3190 c -14,-6 -23,-18 -23,-30 0,-19 4,-21 33,-15 40,9 51,19 44,39 -7,18 -21,19 -54,6 z"
         id="path11836" />
      <path
         inkscape:connector-curvature="0"
         d="m 4766,3179 c -15,-9 -16,-13 -5,-20 12,-7 12,-11 1,-17 -7,-5 -14,-23 -14,-41 -1,-21 -5,-30 -14,-27 -7,3 -15,-2 -18,-10 -10,-27 -6,-35 14,-29 12,4 20,2 20,-5 0,-6 -4,-9 -9,-6 -17,11 -33,-23 -28,-59 3,-19 1,-38 -4,-41 -5,-3 -9,-9 -9,-14 0,-12 49,-45 56,-38 10,11 22,194 13,211 -7,13 -6,17 5,17 9,0 13,6 10,14 -3,7 2,16 10,19 19,7 22,57 4,57 -7,0 -21,-5 -32,-11 z m 1,-131 c -3,-8 -6,-5 -6,6 -1,11 2,17 5,13 3,-3 4,-12 1,-19 z"
         id="path11838" />
      <path
         inkscape:connector-curvature="0"
         d="m 3536,3173 c -3,-3 -2,-11 3,-17 5,-6 11,-20 14,-31 3,-13 5,-9 6,12 1,31 -10,49 -23,36 z"
         id="path11840" />
      <path
         inkscape:connector-curvature="0"
         d="m 3973,3164 c -18,-8 -4,-34 19,-34 13,0 18,6 16,17 -3,18 -16,24 -35,17 z"
         id="path11842" />
      <path
         inkscape:connector-curvature="0"
         d="m 4111,3152 c -8,-15 -7,-23 4,-32 21,-18 47,-4 43,22 -4,29 -34,35 -47,10 z"
         id="path11844" />
      <path
         inkscape:connector-curvature="0"
         d="m 3041,3055 c 0,-58 3,-105 7,-105 21,0 30,23 20,56 -5,19 -8,47 -7,62 4,50 -1,92 -10,92 -6,0 -10,-47 -10,-105 z"
         id="path11846" />
      <path
         inkscape:connector-curvature="0"
         d="m 4062,3151 c 2,-7 7,-12 11,-12 12,1 9,15 -3,20 -7,2 -11,-2 -8,-8 z"
         id="path11848" />
      <path
         inkscape:connector-curvature="0"
         d="m 3470,3125 c -13,-34 -13,-35 7,-57 13,-15 15,-23 6,-36 -7,-12 -7,-30 3,-63 12,-40 12,-50 -1,-75 -8,-16 -15,-36 -15,-44 0,-9 -8,-27 -17,-40 -10,-14 -17,-26 -15,-27 1,-2 2,-7 2,-13 0,-20 -19,-9 -36,20 -14,22 -21,27 -31,18 -18,-14 -16,-59 3,-86 21,-31 64,-26 81,8 7,14 17,32 23,40 6,8 15,21 19,29 15,24 32,3 19,-25 -15,-32 0,-50 26,-31 14,11 16,18 9,33 -6,10 -13,40 -15,66 l -5,47 40,14 c 41,13 41,13 57,-16 11,-23 23,-31 49,-34 45,-4 47,-7 27,-37 -9,-14 -16,-36 -16,-50 0,-14 -4,-28 -10,-31 -5,-3 -10,-15 -10,-25 0,-10 -12,-27 -27,-38 -23,-17 -26,-23 -16,-33 9,-9 21,-10 39,-3 34,12 61,78 41,102 -8,11 -8,14 0,9 11,-7 18,-1 52,38 7,9 11,27 9,40 -4,17 3,31 20,46 l 26,22 -27,23 c -28,24 -57,23 -57,-1 0,-23 -14,-24 -68,-6 -68,24 -112,65 -112,106 0,17 -6,40 -14,51 -8,11 -16,33 -18,49 -4,40 -34,46 -48,10 z"
         id="path11850" />
      <path
         inkscape:connector-curvature="0"
         d="m 4200,3140 c 0,-5 5,-10 10,-10 6,0 10,5 10,10 0,6 -4,10 -10,10 -5,0 -10,-4 -10,-10 z"
         id="path11852" />
      <path
         inkscape:connector-curvature="0"
         d="m 2035,3105 c 10,-60 27,-80 21,-26 -2,24 -10,49 -16,55 -10,8 -11,2 -5,-29 z"
         id="path11854" />
      <path
         inkscape:connector-curvature="0"
         d="m 5436,3107 c 3,-10 9,-15 12,-12 3,3 0,11 -7,18 -10,9 -11,8 -5,-6 z"
         id="path11856" />
      <path
         inkscape:connector-curvature="0"
         d="m 4274,3089 c -11,-19 16,-57 37,-52 14,4 19,0 19,-13 0,-14 3,-15 12,-6 9,9 8,16 -4,29 -8,10 -18,26 -21,36 -7,19 -32,23 -43,6 z"
         id="path11858" />
      <path
         inkscape:connector-curvature="0"
         d="m 4372,3091 c -12,-7 -12,-13 1,-36 l 14,-28 18,26 c 24,37 3,61 -33,38 z"
         id="path11860" />
      <path
         inkscape:connector-curvature="0"
         d="m 4945,3071 c -38,-23 -68,-57 -64,-70 3,-7 23,-1 51,14 49,26 102,32 128,15 11,-7 2,-10 -32,-10 -27,0 -51,-1 -55,-1 -11,-2 -91,-57 -97,-67 -2,-4 43,-7 100,-8 89,-1 104,1 99,14 -4,12 -3,13 10,2 24,-20 46,-4 44,32 -1,18 1,40 5,49 4,10 0,23 -9,33 -24,24 -140,22 -180,-3 z m 165,-47 c 0,-8 -19,-13 -24,-6 -3,5 1,9 9,9 8,0 15,-2 15,-3 z m -50,-48 c 0,-3 -4,-8 -10,-11 -5,-3 -10,-1 -10,4 0,6 5,11 10,11 6,0 10,-2 10,-4 z"
         id="path11862" />
      <path
         inkscape:connector-curvature="0"
         d="m 4585,3071 c -7,-12 12,-24 25,-16 11,7 4,25 -10,25 -5,0 -11,-4 -15,-9 z"
         id="path11864" />
      <path
         inkscape:connector-curvature="0"
         d="m 4650,3070 c -1,-8 -3,-25 -6,-37 -2,-13 0,-23 5,-23 13,0 21,42 11,59 -8,14 -10,14 -10,1 z"
         id="path11866" />
      <path
         inkscape:connector-curvature="0"
         d="m 4450,3055 c 0,-8 4,-15 9,-15 5,0 11,7 15,15 3,9 0,15 -9,15 -8,0 -15,-7 -15,-15 z"
         id="path11868" />
      <path
         inkscape:connector-curvature="0"
         d="m 5242,3045 c -12,-15 -22,-37 -22,-47 0,-30 32,-79 48,-73 7,2 11,1 8,-4 -7,-10 73,-45 82,-36 4,3 -5,9 -18,13 -25,6 -25,6 5,12 22,5 36,1 53,-14 26,-23 29,-8 7,35 -9,17 -21,27 -27,23 -6,-4 -8,-3 -5,3 4,6 0,14 -9,17 -9,3 -12,2 -8,-5 3,-6 -9,-3 -27,7 -19,10 -45,17 -59,15 -20,-1 -22,0 -10,8 26,18 95,13 124,-10 14,-11 26,-27 26,-34 0,-8 4,-17 10,-20 11,-7 3,49 -12,77 -11,23 -56,46 -105,54 -35,5 -42,3 -61,-21 z"
         id="path11870" />
      <path
         inkscape:connector-curvature="0"
         d="m 4489,3031 c -23,-23 -25,-30 -14,-45 10,-13 14,-14 18,-4 4,10 6,10 6,-1 2,-27 30,22 31,52 0,34 -8,33 -41,-2 z"
         id="path11872" />
      <path
         inkscape:connector-curvature="0"
         d="m 2110,3036 c 0,-9 4,-14 10,-11 13,8 1,-122 -16,-164 -8,-18 -14,-54 -14,-80 0,-25 -4,-41 -8,-34 -5,7 -12,-5 -18,-32 -6,-25 -7,-45 -2,-45 11,0 48,38 48,50 0,6 3,10 8,10 4,0 8,17 10,37 1,20 8,46 16,57 13,21 15,60 4,72 -4,3 -4,31 -1,63 4,48 2,59 -16,75 -19,17 -21,18 -21,2 z"
         id="path11874" />
      <path
         inkscape:connector-curvature="0"
         d="m 3873,3026 c -13,-13 -23,-33 -23,-45 0,-12 -6,-21 -14,-21 -13,0 -26,-20 -26,-41 0,-5 14,-9 31,-9 28,0 31,3 27,24 -4,18 0,26 14,29 10,3 18,14 18,25 0,11 5,22 12,24 12,4 4,38 -9,38 -4,0 -18,-11 -30,-24 z"
         id="path11876" />
      <path
         inkscape:connector-curvature="0"
         d="m 5487,2988 c -3,-49 -1,-69 13,-92 l 17,-28 5,32 c 3,20 -1,37 -10,47 -12,12 -13,19 -4,34 16,26 15,69 -2,69 -10,0 -15,-18 -19,-62 z"
         id="path11878" />
      <path
         inkscape:connector-curvature="0"
         d="m 4107,3034 c -9,-10 4,-34 19,-34 8,0 14,9 14,20 0,19 -19,27 -33,14 z"
         id="path11880" />
      <path
         inkscape:connector-curvature="0"
         d="m 4243,3016 c 0,-14 6,-27 13,-30 15,-6 17,-1 8,32 -8,29 -21,28 -21,-2 z"
         id="path11882" />
      <path
         inkscape:connector-curvature="0"
         d="m 4425,3030 c -4,-6 -11,-8 -16,-5 -11,7 -12,-5 -1,-22 6,-9 12,-8 25,7 9,11 12,22 7,25 -5,3 -11,1 -15,-5 z"
         id="path11884" />
      <path
         inkscape:connector-curvature="0"
         d="m 987,2983 c 3,-21 9,-40 13,-43 6,-4 21,-61 24,-92 1,-4 7,-13 14,-19 6,-7 12,-19 12,-26 0,-8 7,-16 15,-19 8,-4 15,-12 15,-20 0,-17 17,-19 22,-2 3,7 10,8 17,4 9,-6 10,-11 2,-15 -14,-9 -2,-51 15,-51 8,0 14,-4 14,-10 0,-5 5,-10 10,-10 6,0 10,9 10,20 0,11 -4,20 -10,20 -5,0 -10,5 -10,11 0,5 5,7 10,4 6,-3 10,-1 10,4 0,6 -4,11 -10,11 -5,0 -10,5 -10,11 0,7 10,9 25,5 39,-10 34,28 -6,44 -40,17 -69,48 -127,137 -26,40 -50,73 -54,73 -4,0 -4,-17 -1,-37 z"
         id="path11886" />
      <path
         inkscape:connector-curvature="0"
         d="m 3960,2989 c -10,-17 -8,-28 6,-55 14,-26 16,-36 6,-46 -18,-18 -15,-38 6,-38 10,0 26,15 37,36 15,28 17,39 7,52 -7,9 -16,27 -21,39 -14,32 -29,36 -41,12 z"
         id="path11888" />
      <path
         inkscape:connector-curvature="0"
         d="m 4163,2994 c -7,-20 4,-30 45,-37 37,-7 39,-1 13,31 -22,26 -49,29 -58,6 z"
         id="path11890" />
      <path
         inkscape:connector-curvature="0"
         d="m 4671,2996 c -11,-13 -11,-20 -3,-28 15,-15 24,-5 20,23 -3,21 -4,21 -17,5 z"
         id="path11892" />
      <path
         inkscape:connector-curvature="0"
         d="m 4344,2976 c -6,-17 2,-36 17,-36 12,0 12,37 -1,45 -6,3 -13,-1 -16,-9 z"
         id="path11894" />
      <path
         inkscape:connector-curvature="0"
         d="m 4558,2974 c -7,-11 -2,-69 6,-83 4,-6 18,-10 31,-9 23,2 30,10 26,31 -1,5 4,5 10,2 8,-6 8,-2 0,13 -6,11 -8,28 -5,36 3,9 1,16 -5,16 -6,0 -11,-10 -11,-22 0,-21 0,-21 -15,-2 -11,15 -15,16 -15,4 -1,-10 -4,-9 -9,4 -4,11 -10,15 -13,10 z"
         id="path11896" />
      <path
         inkscape:connector-curvature="0"
         d="m 3400,2960 c 0,-5 4,-10 9,-10 6,0 13,5 16,10 3,6 -1,10 -9,10 -9,0 -16,-4 -16,-10 z"
         id="path11898" />
      <path
         inkscape:connector-curvature="0"
         d="m 4286,2955 c 4,-8 10,-15 15,-15 5,0 9,7 9,15 0,8 -7,15 -15,15 -9,0 -12,-6 -9,-15 z"
         id="path11900" />
      <path
         inkscape:connector-curvature="0"
         d="m 4389,2920 c -4,-43 -5,-45 -44,-51 -23,-4 -56,-14 -75,-23 -19,-9 -26,-14 -15,-12 11,2 58,10 105,17 47,7 77,15 68,17 -17,3 -33,35 -25,49 3,5 1,17 -3,28 -6,15 -9,9 -11,-25 z"
         id="path11902" />
      <path
         inkscape:connector-curvature="0"
         d="m 1225,2919 c -11,-17 1,-21 15,-4 8,9 8,15 2,15 -6,0 -14,-5 -17,-11 z"
         id="path11904" />
      <path
         inkscape:connector-curvature="0"
         d="m 1546,2919 c 4,-7 1,-10 -7,-7 -21,8 -51,-11 -45,-28 3,-8 1,-14 -5,-14 -6,0 -8,-7 -5,-16 4,-10 0,-21 -10,-28 -14,-11 -14,-13 0,-25 12,-10 23,-11 39,-5 15,7 36,5 68,-6 46,-16 46,-16 21,-28 -14,-7 -37,-12 -51,-13 -17,-1 -10,-4 18,-10 45,-9 101,9 101,32 0,6 8,8 18,5 26,-9 41,23 35,76 l -5,46 -57,10 c -109,21 -122,22 -115,11 z m 92,-55 c 12,-4 22,-13 22,-21 0,-10 -6,-13 -16,-9 -9,3 -39,7 -67,7 -29,1 -41,4 -27,6 14,3 29,9 35,14 11,10 21,11 53,3 z"
         id="path11906" />
      <path
         inkscape:connector-curvature="0"
         d="m 4485,2920 c -3,-5 -1,-10 4,-10 6,0 11,5 11,10 0,6 -2,10 -4,10 -3,0 -8,-4 -11,-10 z"
         id="path11908" />
      <path
         inkscape:connector-curvature="0"
         d="m 4642,2898 c -8,-10 -5,-13 13,-13 18,0 21,3 13,13 -6,6 -12,12 -13,12 -1,0 -7,-6 -13,-12 z"
         id="path11910" />
      <path
         inkscape:connector-curvature="0"
         d="m 1230,2869 c 0,-10 -3,-26 -6,-36 -4,-13 0,-11 16,7 21,25 22,25 17,2 -3,-12 -1,-20 4,-16 5,3 9,17 9,32 0,21 -5,28 -20,28 -12,0 -20,-7 -20,-17 z"
         id="path11912" />
      <path
         inkscape:connector-curvature="0"
         d="m 4460,2865 c 0,-17 9,-19 28,-6 11,7 10,10 -3,15 -23,9 -25,8 -25,-9 z"
         id="path11914" />
      <path
         inkscape:connector-curvature="0"
         d="m 3415,2861 c -3,-5 -1,-12 5,-16 5,-3 10,1 10,9 0,18 -6,21 -15,7 z"
         id="path11916" />
      <path
         inkscape:connector-curvature="0"
         d="m 1290,2835 c 8,-22 6,-27 -20,-40 -17,-9 -31,-23 -32,-33 -3,-35 3,-57 17,-65 8,-4 15,-13 15,-18 0,-6 7,-17 15,-25 19,-20 20,-4 0,22 -19,25 -19,48 1,65 10,8 13,21 9,36 -3,13 -1,23 4,23 16,0 21,31 7,46 -21,21 -27,17 -16,-11 z"
         id="path11918" />
      <path
         inkscape:connector-curvature="0"
         d="m 1780,2842 c 0,-4 7,-15 14,-25 7,-9 11,-28 9,-41 -6,-30 23,-75 56,-88 52,-20 81,-27 81,-17 0,5 -6,9 -14,9 -8,0 -28,12 -43,26 l -28,25 25,-7 c 14,-4 36,-7 49,-6 14,1 28,-3 32,-10 5,-7 11,-9 15,-5 19,18 -65,77 -111,77 -15,0 -24,4 -20,10 8,12 70,13 112,1 53,-15 29,14 -30,38 -49,19 -147,28 -147,13 z"
         id="path11920" />
      <path
         inkscape:connector-curvature="0"
         d="m 2172,2827 c -8,-10 -6,-13 8,-14 10,-1 24,5 31,13 9,11 8,14 -9,14 -11,0 -24,-6 -30,-13 z"
         id="path11922" />
      <path
         inkscape:connector-curvature="0"
         d="m 4991,2772 c -52,-71 -56,-84 -45,-165 7,-50 24,-55 24,-8 0,33 19,40 85,31 31,-4 41,-10 43,-26 3,-21 39,-44 68,-44 20,0 47,27 39,40 -3,5 -20,10 -37,10 -16,0 -42,9 -56,21 l -27,21 25,-7 c 14,-3 45,-7 70,-9 25,-1 62,-10 82,-19 21,-9 42,-17 48,-17 12,0 12,2 1,-38 -7,-21 -6,-32 1,-32 6,0 8,-15 6,-35 -3,-28 -1,-32 10,-23 7,6 20,24 28,40 14,28 10,34 -20,29 -4,-1 -5,13 -2,31 20,94 19,109 -10,161 -15,29 -33,55 -40,60 -7,4 -20,15 -29,23 -12,12 -19,13 -29,5 -10,-9 -16,-9 -21,-1 -3,6 -11,8 -16,4 -5,-3 -16,0 -25,6 -11,10 -24,10 -59,0 -25,-7 -48,-17 -52,-23 -9,-14 26,-37 45,-30 13,6 13,8 -4,14 -18,7 -17,8 3,8 12,1 28,-6 37,-14 10,-10 39,-16 90,-18 l 75,-2 16,-40 c 13,-36 21,-100 8,-67 -6,15 -33,16 -33,0 0,-6 -10,-2 -22,9 -36,32 -47,35 -111,40 -40,2 -74,-1 -99,-12 -32,-12 -38,-13 -38,-1 0,27 -34,9 -45,-23 -6,-18 -13,-29 -17,-26 -11,12 10,63 52,125 23,34 40,64 37,66 -2,3 -28,-26 -56,-64 z"
         id="path11924" />
      <path
         inkscape:connector-curvature="0"
         d="m 4706,2811 c -4,-7 -5,-15 -2,-18 9,-9 19,4 14,18 -4,11 -6,11 -12,0 z"
         id="path11926" />
      <path
         inkscape:connector-curvature="0"
         d="m 3900,2780 c 0,-28 13,-40 24,-22 7,12 -5,52 -15,52 -5,0 -9,-13 -9,-30 z"
         id="path11928" />
      <path
         inkscape:connector-curvature="0"
         d="m 4400,2791 c 0,-12 5,-21 10,-21 6,0 10,6 10,14 0,8 -4,18 -10,21 -5,3 -10,-3 -10,-14 z"
         id="path11930" />
      <path
         inkscape:connector-curvature="0"
         d="m 5499,2762 c 0,-20 -2,-53 -5,-73 -6,-48 10,-89 35,-89 33,0 43,24 37,89 -8,76 -12,86 -42,99 -23,11 -24,10 -25,-26 z"
         id="path11932" />
      <path
         inkscape:connector-curvature="0"
         d="m 5482,2770 c 0,-14 2,-19 5,-12 2,6 2,18 0,25 -3,6 -5,1 -5,-13 z"
         id="path11934" />
      <path
         inkscape:connector-curvature="0"
         d="m 1568,2773 c 7,-3 16,-2 19,1 4,3 -2,6 -13,5 -11,0 -14,-3 -6,-6 z"
         id="path11936" />
      <path
         inkscape:connector-curvature="0"
         d="m 4022,2764 c -12,-21 -4,-51 15,-58 23,-9 33,2 33,40 0,27 -4,34 -20,34 -10,0 -23,-7 -28,-16 z"
         id="path11938" />
      <path
         inkscape:connector-curvature="0"
         d="m 989,2750 c -1,-14 -2,-50 -4,-80 -1,-30 -5,-114 -9,-186 -3,-73 -9,-142 -14,-155 -5,-13 -8,-63 -8,-111 1,-61 -3,-88 -11,-88 -6,0 -14,6 -16,13 -4,7 -6,6 -6,-4 -1,-20 -21,-29 -64,-29 -80,0 -385,-72 -448,-106 -19,-10 -38,-18 -44,-19 -5,0 -10,-7 -10,-15 -1,-28 -17,-80 -23,-76 -4,2 -6,-30 -4,-71 2,-41 0,-73 -5,-70 -4,3 -8,-10 -9,-28 0,-19 3,-32 7,-29 12,7 20,-32 13,-60 -3,-14 -10,-23 -15,-20 -5,3 -9,-2 -9,-11 0,-9 4,-14 9,-11 5,3 12,-1 15,-10 9,-24 7,-94 -3,-94 -5,0 -7,-10 -3,-22 3,-14 2,-19 -6,-14 -9,5 -11,-58 -8,-256 4,-223 8,-276 25,-346 12,-46 19,-88 15,-93 -3,-5 0,-9 6,-9 6,0 8,-11 4,-27 -4,-23 -3,-25 6,-13 9,12 11,10 7,-12 -2,-17 0,-25 6,-21 6,4 8,0 4,-10 -8,-20 2,-49 13,-42 5,3 23,-34 42,-82 31,-84 33,-94 32,-218 C 474,210 461,113 434,18 429,1 479,0 1390,0 l 962,0 -7,37 c -4,21 -4,129 0,240 l 8,203 51,-6 c 28,-4 56,-10 61,-14 12,-9 68,-10 75,-1 3,3 38,21 78,40 39,19 72,38 72,41 0,8 67,40 83,40 7,0 -6,-10 -28,-23 -44,-25 -53,-52 -54,-153 l -1,-52 158,-6 c 86,-3 192,-8 235,-11 l 77,-4 0,88 c 0,48 3,176 7,283 l 6,195 -54,7 c -30,3 -84,7 -121,7 l -66,2 -16,41 c -9,23 -37,66 -63,96 -27,30 -42,51 -35,46 6,-4 12,-2 12,3 0,6 -6,11 -12,11 -9,0 -8,4 2,11 13,9 13,10 -2,6 -16,-6 -47,19 -46,38 0,5 -15,17 -33,27 -25,14 -29,18 -14,18 20,1 20,1 0,16 -11,8 -25,19 -32,22 -7,4 -14,17 -16,30 -2,12 -16,34 -33,49 -16,16 -29,38 -30,51 -1,26 11,29 24,6 8,-14 10,-13 15,6 3,12 3,20 0,17 -8,-9 -49,45 -56,72 -3,14 -1,31 4,38 7,7 8,29 4,53 -5,31 -14,44 -37,56 -25,13 -29,20 -25,42 6,29 -12,71 -39,93 -10,8 -15,9 -11,3 8,-14 -96,41 -158,83 -27,18 -64,35 -84,38 -44,8 -183,64 -158,65 18,0 21,16 16,105 -1,28 -2,102 -2,166 2,129 9,115 -74,151 -16,7 -31,14 -35,15 -4,2 -14,-13 -23,-33 -8,-20 -33,-57 -55,-84 -29,-35 -38,-53 -34,-71 3,-13 7,-39 10,-58 2,-19 7,-37 9,-42 3,-4 0,-9 -7,-11 -9,-3 -9,-6 0,-12 7,-4 12,-2 12,3 0,6 5,11 11,11 5,0 9,-8 8,-17 -4,-24 17,-60 42,-74 15,-7 19,-8 15,0 -11,17 -17,297 -7,322 8,23 8,23 19,3 12,-22 21,-127 23,-274 2,-68 6,-93 17,-99 11,-6 12,-10 3,-16 -7,-4 -22,1 -34,12 -36,33 -46,35 -40,11 5,-22 4,-22 -21,5 -15,15 -31,27 -36,27 -5,0 -14,18 -20,39 -15,56 -47,125 -53,114 -3,-4 -1,-32 4,-62 6,-39 4,-81 -7,-145 -9,-50 -17,-117 -17,-149 l -2,-59 -25,30 c -14,16 -33,39 -42,50 -10,12 -29,22 -42,22 -20,0 -30,11 -53,59 -31,65 -32,81 -1,81 16,0 19,-5 13,-28 -4,-20 1,-38 17,-62 30,-44 53,-52 46,-15 -5,22 -3,26 13,22 23,-6 23,-4 4,33 -9,17 -22,30 -30,30 -23,0 -28,20 -9,35 20,14 44,4 44,-20 0,-6 9,-20 20,-30 31,-28 24,-9 -20,53 -27,38 -37,59 -30,66 17,17 11,23 -15,18 -27,-5 -32,7 -15,39 12,22 32,26 24,4 -7,-18 8,-19 52,-3 38,14 55,39 21,30 -20,-5 -20,-4 -8,11 8,10 9,17 3,17 -6,0 -14,-4 -17,-10 -3,-5 -11,-10 -17,-10 -6,0 -3,9 7,20 10,11 15,20 10,20 -4,0 -2,6 4,14 10,11 6,20 -16,40 -15,14 -35,26 -43,26 -9,0 -22,6 -29,13 -11,10 -13,9 -8,-6 6,-15 3,-17 -13,-12 -11,3 -38,7 -60,7 -29,0 -43,6 -51,19 -5,11 -14,17 -19,14 -16,-10 2,29 19,42 21,16 51,16 51,0 0,-9 17,-14 53,-16 28,-1 61,-8 72,-14 20,-13 65,-2 65,15 0,5 7,8 15,8 8,0 15,4 15,10 0,5 -6,7 -14,4 -8,-3 -17,-1 -21,5 -10,18 31,13 46,-5 11,-13 10,-17 -4,-26 -16,-9 -16,-11 3,-38 23,-33 26,-60 6,-60 -7,0 -16,-9 -19,-20 -4,-17 -3,-18 13,-7 23,16 75,78 64,76 -20,-3 -24,2 -15,20 8,15 7,20 -6,25 -14,6 -14,8 1,24 10,12 16,36 16,70 0,47 -2,52 -22,52 -21,-1 -21,-2 -5,-11 9,-5 17,-17 17,-24 0,-18 -12,-19 -27,-4 -11,11 -25,14 -75,18 -28,2 -18,60 14,84 28,21 28,21 43,1 14,-18 14,-17 8,16 -3,19 -12,46 -20,60 -9,15 -12,17 -8,5 19,-56 19,-56 -11,-49 -16,4 -31,11 -34,15 -3,5 -26,10 -50,13 -92,11 -102,17 -75,46 17,19 17,20 0,20 -9,0 -30,-10 -45,-22 -15,-13 -37,-30 -49,-38 -11,-8 -21,-20 -21,-27 0,-6 -6,-16 -13,-20 -15,-9 -47,-54 -47,-65 0,-19 31,-6 42,17 14,30 89,89 97,76 3,-4 16,-12 29,-16 13,-4 21,-9 18,-12 -3,-4 2,-12 12,-19 10,-8 12,-13 5,-14 -27,0 -11,-29 25,-43 21,-9 29,-16 19,-16 -11,-1 -31,7 -45,18 -20,14 -43,18 -87,17 -71,-1 -81,-7 -90,-46 -7,-30 -30,-50 -58,-50 -19,0 -11,36 9,44 8,3 14,18 14,33 l 0,28 -28,-30 c -16,-17 -26,-34 -24,-39 3,-4 -1,-11 -7,-15 -9,-6 -9,-23 -3,-64 7,-42 6,-57 -3,-57 -6,0 -17,11 -23,25 -15,32 -15,38 -1,29 8,-4 7,0 -1,15 -6,12 -15,19 -21,16 -5,-4 -9,-1 -9,4 0,6 -4,11 -9,11 -5,0 -7,-9 -4,-20 3,-11 8,-18 12,-16 3,2 7,-16 7,-40 1,-30 -2,-41 -10,-37 -6,4 -5,0 2,-9 8,-11 9,-17 2,-20 -6,-2 -4,-12 6,-26 9,-13 22,-21 30,-18 8,3 13,0 11,-6 -1,-6 29,-31 67,-54 39,-23 86,-56 105,-73 19,-18 45,-34 58,-37 29,-8 29,-10 -2,-49 -13,-18 -21,-36 -17,-40 4,-5 2,-5 -4,-2 -6,4 -22,-5 -34,-18 l -24,-25 35,-27 c 54,-43 182,-174 217,-222 38,-53 40,-72 8,-106 l -23,-25 -28,42 c -16,24 -73,87 -127,141 -102,101 -117,106 -105,34 6,-30 5,-31 -5,-7 -44,100 -156,312 -208,394 -34,55 -62,110 -62,123 -1,13 -5,20 -12,17 -6,-3 -4,0 5,8 9,7 14,19 12,26 -3,6 0,12 5,12 5,0 8,11 7,25 -2,14 1,25 7,25 6,0 8,-7 4,-15 -3,-8 -1,-15 5,-15 5,0 12,6 14,13 6,18 13,167 7,167 -3,0 -11,-8 -18,-17 -13,-17 -13,-17 -14,3 0,11 -6,26 -12,32 -10,10 -10,15 2,22 12,8 12,10 1,10 -7,0 -11,6 -8,14 4,10 1,13 -9,9 -10,-4 -12,-9 -4,-18 8,-9 3,-12 -20,-11 -16,1 -30,5 -30,9 0,5 -5,5 -10,2 -6,-4 -9,-3 -8,2 3,11 -34,53 -47,53 -12,0 -65,54 -65,67 -1,4 -14,24 -30,43 -29,34 -30,34 -31,10 z m 87,-301 c -5,-97 -9,-119 -22,-107 -7,8 -7,28 1,117 6,71 10,91 21,91 2,0 2,-46 0,-101 z m 109,-36 c -4,-76 -9,-149 -10,-162 -1,-21 -50,-69 -60,-60 -2,3 1,36 6,74 5,39 11,102 14,140 8,96 22,145 42,145 14,0 15,-15 8,-137 z m 92,12 c 1,-19 -3,-35 -8,-35 -10,0 -12,53 -2,63 9,10 9,10 10,-28 z m 448,9 c 75,-18 91,-26 81,-42 -4,-7 -22,-4 -49,8 -23,10 -62,21 -87,25 -25,3 -61,9 -80,14 -34,9 -34,9 15,10 28,1 82,-6 120,-15 z m -155,-34 c 0,-5 -7,-10 -16,-10 -8,0 -12,5 -9,10 3,6 10,10 16,10 5,0 9,-4 9,-10 z m -504,-108 c -3,-10 -6,-42 -8,-72 -2,-59 -12,-80 -35,-80 -11,0 -13,3 -5,13 6,6 13,43 16,81 4,38 9,73 12,77 9,15 25,-1 20,-19 z m 862,-59 c -1,-10 1,-24 6,-31 10,-16 -2,-90 -16,-98 -7,-4 -9,6 -6,30 2,20 0,36 -5,36 -5,0 -7,7 -4,15 4,8 2,17 -3,20 -7,4 -6,13 0,26 13,24 32,25 28,2 z m -463,-58 30,-27 -45,25 c -24,14 -46,30 -48,37 -6,16 23,0 63,-35 z m 392,-117 c -3,-7 -5,-2 -5,12 0,14 2,19 5,13 2,-7 2,-19 0,-25 z m 203,-354 c 0,-10 -13,-14 -43,-14 -48,0 -62,7 -47,24 13,16 90,8 90,-10 z m -343,-242 c 25,-41 25,-45 10,-80 -9,-20 -17,-43 -19,-50 -2,-7 -19,9 -39,35 -33,45 -54,90 -64,141 -2,11 -11,34 -19,51 -9,17 -13,31 -9,31 4,0 2,5 -5,12 -7,7 -12,17 -12,22 0,18 130,-117 157,-162 z m 793,-252 c 0,-13 7,-20 20,-20 15,0 20,-7 20,-25 0,-46 -42,-52 -197,-28 l -51,8 29,34 c 23,28 31,32 43,22 12,-10 23,-8 58,7 57,27 78,27 78,2 z m -1305,-76 c 28,-8 95,-17 150,-20 212,-11 199,-8 212,-35 13,-24 13,-24 13,-1 0,29 14,28 38,-3 28,-36 112,-231 112,-261 0,-14 4,-22 10,-19 6,4 9,-4 7,-17 -1,-14 3,-22 11,-20 7,1 12,-9 12,-28 0,-30 0,-30 -42,-24 -76,12 -112,28 -134,61 -17,25 -24,29 -35,20 -7,-7 -6,-3 3,8 12,15 17,44 19,112 2,51 0,95 -2,98 -3,3 -11,-6 -17,-21 -10,-20 -10,-24 0,-18 7,4 5,-2 -4,-13 -10,-11 -18,-24 -18,-30 0,-19 -24,-21 -50,-4 -14,10 -21,11 -17,4 5,-9 2,-13 -8,-13 -9,0 -14,4 -11,9 3,5 -3,11 -14,14 -11,3 -18,0 -17,-6 1,-6 -6,-13 -15,-15 -12,-2 -19,5 -24,22 -6,26 -34,37 -34,14 0,-9 -4,-8 -10,2 -5,8 -10,11 -10,7 0,-4 7,-19 16,-32 13,-19 14,-28 5,-39 -12,-14 -35,-16 -47,-3 -4,4 -17,4 -29,1 -13,-3 -26,0 -30,7 -5,8 -4,10 3,5 7,-4 12,-2 12,5 0,6 -8,9 -19,6 -10,-2 -29,4 -42,15 -16,14 -18,18 -6,14 26,-8 20,7 -8,21 -14,6 -27,7 -31,2 -3,-5 -16,-9 -30,-9 -14,0 -35,-5 -46,-11 -15,-8 -23,-8 -32,1 -8,9 -7,11 4,10 27,-4 41,0 35,9 -3,5 20,15 50,21 30,6 55,14 55,17 0,3 -24,4 -52,2 -29,-2 -70,3 -91,11 l -39,15 39,17 c 26,11 32,17 18,17 -17,1 -17,3 -5,11 13,8 13,10 -1,10 -16,0 -20,33 -4,47 4,5 5,1 1,-7 -4,-8 1,-5 10,8 20,27 66,29 139,6 z M 2991,812 c 13,-34 11,-103 -5,-133 -11,-22 -11,-30 0,-50 24,-43 13,-109 -18,-109 -13,0 -78,61 -78,74 0,6 -5,18 -10,26 -7,12 -13,11 -37,-10 -20,-18 -23,-19 -10,-4 10,12 22,45 27,75 18,98 39,172 52,180 17,11 68,-21 79,-49 z M 2001,540 c 12,-42 9,-144 -4,-170 -11,-22 -20,-25 -65,-26 -35,-1 -52,2 -49,10 11,29 69,193 73,204 7,22 38,9 45,-18 z m 248,-53 c -2,-1 -13,-9 -24,-17 -19,-14 -19,-14 -6,3 7,9 18,17 24,17 6,0 8,-1 6,-3 z m 35,-28 c -25,-27 -37,-23 -18,6 9,14 20,22 26,19 5,-3 2,-14 -8,-25 z"
         id="path11940" />
      <path
         inkscape:connector-curvature="0"
         d="m 1455,1082 c -33,-7 -55,-33 -55,-65 0,-23 3,-28 16,-23 14,5 15,4 5,-8 -10,-12 -8,-17 8,-25 26,-15 34,-14 28,2 -3,8 -1,20 4,28 6,10 9,7 9,-13 0,-29 14,-35 40,-18 13,9 11,13 -10,30 -30,23 -19,27 15,4 23,-15 24,-15 30,9 4,14 2,34 -4,45 -12,23 -56,40 -86,34 z m 52,-38 c -3,-3 -12,-4 -19,-1 -8,3 -5,6 6,6 11,1 17,-2 13,-5 z"
         id="path11942" />
      <path
         inkscape:connector-curvature="0"
         d="m 1590,1086 c 0,-2 8,-10 18,-17 15,-13 16,-12 3,4 -13,16 -21,21 -21,13 z"
         id="path11944" />
      <path
         inkscape:connector-curvature="0"
         d="m 1068,1013 c 7,-3 16,-2 19,1 4,3 -2,6 -13,5 -11,0 -14,-3 -6,-6 z"
         id="path11946" />
      <path
         inkscape:connector-curvature="0"
         d="m 1351,984 c 0,-11 3,-14 6,-6 3,7 2,16 -1,19 -3,4 -6,-2 -5,-13 z"
         id="path11948" />
      <path
         inkscape:connector-curvature="0"
         d="m 2235,2760 c -3,-5 -1,-10 4,-10 6,0 11,5 11,10 0,6 -2,10 -4,10 -3,0 -8,-4 -11,-10 z"
         id="path11950" />
      <path
         inkscape:connector-curvature="0"
         d="m 3747,2748 c -13,-13 -17,-28 -13,-44 8,-31 20,-30 34,1 23,50 10,75 -21,43 z"
         id="path11952" />
      <path
         inkscape:connector-curvature="0"
         d="m 4405,2721 c -3,-5 -1,-12 5,-16 5,-3 10,1 10,9 0,18 -6,21 -15,7 z"
         id="path11954" />
      <path
         inkscape:connector-curvature="0"
         d="m 1192,2685 c 0,-16 2,-22 5,-12 2,9 2,23 0,30 -3,6 -5,-1 -5,-18 z"
         id="path11956" />
      <path
         inkscape:connector-curvature="0"
         d="m 3370,2685 c 0,-8 -4,-15 -9,-15 -14,0 -22,-49 -11,-69 7,-14 6,-21 -3,-24 -9,-3 -9,-7 2,-20 19,-24 31,-21 31,8 0,16 6,25 15,25 20,0 20,42 0,80 -17,33 -25,38 -25,15 z"
         id="path11958" />
      <path
         inkscape:connector-curvature="0"
         d="m 3506,2691 c -3,-5 -4,-30 -2,-55 4,-33 1,-46 -8,-46 -7,0 -21,-9 -31,-20 -10,-11 -24,-20 -32,-20 -20,0 -16,-28 6,-40 26,-14 27,-13 51,12 l 21,23 -7,-68 c -8,-79 6,-89 44,-31 24,39 28,64 11,81 -12,12 -2,56 11,48 16,-10 31,32 16,44 -7,6 -16,7 -20,3 -5,-4 -7,7 -5,23 2,17 0,36 -4,43 -9,14 -43,16 -51,3 z"
         id="path11960" />
      <path
         inkscape:connector-curvature="0"
         d="m 5858,2693 c 12,-2 22,-9 22,-14 0,-5 5,-9 10,-9 6,0 10,7 10,15 0,11 -10,15 -32,14 -24,-1 -27,-3 -10,-6 z"
         id="path11962" />
      <path
         inkscape:connector-curvature="0"
         d="m 3803,2655 c -7,-8 -9,-16 -4,-19 5,-3 12,1 15,10 8,22 4,25 -11,9 z"
         id="path11964" />
      <path
         inkscape:connector-curvature="0"
         d="m 1866,2645 c 4,-8 16,-15 27,-15 20,0 20,0 1,15 -25,19 -35,19 -28,0 z"
         id="path11966" />
      <path
         inkscape:connector-curvature="0"
         d="m 5880,2645 c 0,-8 5,-15 10,-15 6,0 10,7 10,15 0,8 -4,15 -10,15 -5,0 -10,-7 -10,-15 z"
         id="path11968" />
      <path
         inkscape:connector-curvature="0"
         d="m 4430,2640 c 0,-5 4,-10 9,-10 6,0 13,5 16,10 3,6 -1,10 -9,10 -9,0 -16,-4 -16,-10 z"
         id="path11970" />
      <path
         inkscape:connector-curvature="0"
         d="m 2350,2615 c 0,-8 2,-15 4,-15 2,0 6,7 10,15 3,8 1,15 -4,15 -6,0 -10,-7 -10,-15 z"
         id="path11972" />
      <path
         inkscape:connector-curvature="0"
         d="m 2031,2613 c -1,-6 -4,-20 -7,-30 -5,-17 -5,-17 6,0 6,10 9,23 6,30 -3,9 -5,9 -5,0 z"
         id="path11974" />
      <path
         inkscape:connector-curvature="0"
         d="m 3797,2602 c 1,-8 3,-18 3,-22 0,-5 11,-20 25,-33 l 26,-23 -23,-41 c -20,-36 -28,-42 -65,-48 -28,-4 -43,-11 -43,-21 0,-8 3,-14 8,-15 4,0 18,-2 32,-3 35,-4 50,3 50,25 0,11 7,19 16,19 9,0 12,5 8,12 -4,7 -3,8 5,4 6,-4 18,-3 26,4 9,7 15,8 20,0 9,-15 32,-12 38,4 11,27 -5,88 -23,93 -12,3 -16,12 -13,26 3,13 1,18 -4,12 -11,-13 -53,-17 -53,-5 0,6 -6,10 -14,10 -8,0 -16,3 -19,8 -2,4 -2,1 0,-6 z"
         id="path11976" />
      <path
         inkscape:connector-curvature="0"
         d="m 5862,2590 c 0,-19 2,-27 5,-17 2,9 2,25 0,35 -3,9 -5,1 -5,-18 z"
         id="path11978" />
      <path
         inkscape:connector-curvature="0"
         d="m 5880,2591 c 0,-36 -17,-50 -28,-22 -7,19 -9,20 -36,6 -15,-8 -35,-15 -42,-15 -8,0 -14,-4 -14,-10 0,-5 9,-10 21,-10 15,0 19,-5 15,-15 -3,-8 -1,-15 4,-15 6,0 10,-14 10,-31 0,-29 -2,-30 -37,-28 -21,2 -47,-2 -58,-9 l -20,-11 20,-2 c 11,-1 32,0 47,1 15,1 38,-6 50,-14 12,-9 31,-16 41,-16 14,0 12,-6 -15,-30 -18,-16 -42,-30 -53,-30 -39,0 -65,-28 -65,-69 0,-42 6,-52 26,-44 10,4 11,9 1,24 -10,16 -9,21 3,29 20,13 23,12 44,-3 17,-12 17,-15 2,-29 -12,-12 -13,-18 -3,-21 6,-3 -3,-6 -20,-6 -44,-1 -46,-31 -3,-31 17,0 30,-3 30,-8 0,-4 10,-12 22,-17 49,-22 23,-65 -45,-72 -26,-3 -44,-9 -42,-13 3,-5 15,-6 28,-3 12,3 19,2 15,-2 -5,-5 -32,-8 -60,-7 l -53,1 60,-15 c 32,-8 66,-12 74,-9 9,3 12,3 8,-1 -4,-4 17,-15 45,-25 29,-10 55,-14 58,-9 3,5 12,5 20,0 12,-8 11,-10 -5,-10 -11,-1 2,-10 30,-21 27,-11 57,-18 67,-16 9,3 17,2 16,-2 -4,-13 39,-71 47,-63 5,4 5,1 1,-6 -11,-18 3,-73 17,-67 7,3 5,0 -4,-6 -12,-9 -14,-22 -7,-68 15,-104 14,-116 -4,-116 -29,0 -33,-16 -9,-34 14,-11 24,-28 24,-43 0,-18 4,-25 16,-23 9,1 10,0 3,-2 -11,-4 -11,-8 0,-20 10,-13 9,-18 -8,-31 l -20,-16 23,-21 c 22,-18 23,-23 12,-53 -9,-27 -9,-36 5,-51 9,-10 16,-22 16,-28 0,-15 49,-45 63,-39 7,2 4,5 -5,5 -21,1 -24,17 -5,24 6,2 0,2 -15,0 -21,-4 -28,0 -28,12 0,10 6,15 13,12 7,-3 13,3 13,13 0,14 -4,16 -17,9 -20,-10 -48,14 -29,26 5,3 10,-1 10,-9 0,-24 25,-8 36,22 l 10,27 0,-33 c 1,-18 6,-38 12,-44 9,-9 12,10 12,79 0,109 -5,127 -30,113 -26,-14 -54,14 -41,39 14,26 39,44 50,36 7,-4 10,8 8,33 -2,31 -6,38 -22,37 -11,0 -21,8 -23,18 -2,12 3,17 17,17 17,0 21,6 21,30 0,27 -3,30 -30,30 -16,0 -33,1 -37,1 -5,1 -14,-9 -20,-22 l -13,-24 0,27 c 0,17 5,27 12,25 8,-1 13,21 15,76 2,51 -1,77 -8,77 -6,0 -9,-10 -6,-22 3,-13 1,-32 -4,-43 -8,-17 -9,-16 -6,7 3,20 -1,29 -14,33 -18,6 -24,17 -20,38 1,5 -3,6 -9,2 -5,-3 -10,1 -10,9 0,9 7,16 15,16 8,0 15,-7 15,-15 0,-8 7,-15 15,-15 9,0 12,6 9,15 -4,8 -1,15 5,15 6,0 11,-5 11,-10 0,-6 8,-5 20,2 16,10 17,15 7,28 -35,44 -51,110 -27,110 6,0 10,7 10,15 0,10 -10,15 -30,15 -16,0 -30,-4 -30,-10 0,-11 -42,-13 -76,-4 -29,8 -49,51 -32,67 31,30 118,56 118,37 0,-5 7,-11 16,-14 12,-5 14,-1 8,17 -11,38 -25,49 -38,33 -6,-8 -22,-16 -36,-18 -24,-3 -25,-1 -28,60 -2,44 -7,62 -16,62 -8,0 -23,8 -35,18 -28,23 -18,58 20,71 33,11 38,28 12,39 -13,5 -18,19 -18,51 0,29 -5,46 -14,49 -10,3 -12,-1 -9,-16 4,-13 1,-20 -6,-19 -7,1 -10,-10 -9,-29 3,-36 -16,-58 -41,-48 -13,5 -16,16 -14,43 3,31 6,36 28,36 21,0 26,5 28,33 3,29 1,32 -22,32 -22,0 -26,-5 -26,-29 z m 44,-307 c 21,-8 2,-34 -25,-34 -24,0 -35,20 -18,31 17,10 23,11 43,3 z m 146,-234 c 0,-46 -2,-50 -24,-50 -22,0 -35,21 -36,57 0,9 27,29 58,42 1,1 2,-21 2,-49 z m -148,-9 c 15,-17 14,-18 -8,-18 -23,0 -32,16 -17,30 8,9 6,10 25,-12 z m 213,-350 c -3,-6 -11,-8 -17,-5 -6,4 -5,9 3,15 16,10 23,4 14,-10 z m -1,-36 c -4,-8 -8,-15 -10,-15 -2,0 -4,7 -4,15 0,8 4,15 10,15 5,0 7,-7 4,-15 z m 73,-192 c -3,-10 -5,-4 -5,12 0,17 2,24 5,18 2,-7 2,-21 0,-30 z m 3,-31 c 0,-5 -7,-9 -15,-9 -8,0 -15,4 -15,9 0,4 7,8 15,8 8,0 15,-4 15,-8 z"
         id="path11980" />
      <path
         inkscape:connector-curvature="0"
         d="m 3725,2589 c -4,-12 -2,-26 3,-31 17,-17 42,-1 42,27 0,32 -35,35 -45,4 z"
         id="path11982" />
      <path
         inkscape:connector-curvature="0"
         d="m 4442,2595 -23,-13 23,-5 c 13,-3 41,-2 63,3 22,4 30,8 18,9 -13,0 -23,5 -23,9 0,12 -33,10 -58,-3 z"
         id="path11984" />
      <path
         inkscape:connector-curvature="0"
         d="m 2315,2590 c -3,-5 -4,-14 -1,-19 4,-5 -3,-7 -14,-4 -21,6 -24,-1 -20,-49 1,-19 -3,-28 -14,-28 -14,0 -33,-37 -23,-46 2,-3 24,13 48,36 30,27 38,40 26,40 -9,0 -17,7 -17,15 0,18 12,19 28,3 9,-9 12,-9 12,0 0,7 -4,12 -10,12 -6,0 -6,9 0,25 9,24 -2,36 -15,15 z"
         id="path11986" />
      <path
         inkscape:connector-curvature="0"
         d="m 4134,2585 c -9,-23 3,-45 21,-39 20,8 20,54 0,54 -9,0 -18,-7 -21,-15 z"
         id="path11988" />
      <path
         inkscape:connector-curvature="0"
         d="m 4909,2600 c -8,-24 -3,-60 8,-60 7,0 16,0 20,-1 16,-1 13,19 -6,42 -11,13 -21,22 -22,19 z"
         id="path11990" />
      <path
         inkscape:connector-curvature="0"
         d="m 4325,2580 c -3,-5 -16,-10 -27,-10 -12,0 -19,-3 -16,-6 9,-8 98,7 98,17 0,12 -47,11 -55,-1 z"
         id="path11992" />
      <path
         inkscape:connector-curvature="0"
         d="m 5526,2583 c -4,-5 -20,-8 -34,-8 -20,0 -28,-6 -30,-22 -4,-26 -37,-40 -57,-23 -11,9 -16,7 -24,-9 -9,-16 -7,-23 11,-35 30,-21 32,-21 70,14 39,36 48,37 48,6 0,-27 24,-51 44,-43 7,3 16,20 19,39 8,50 -24,104 -47,81 z"
         id="path11994" />
      <path
         inkscape:connector-curvature="0"
         d="m 5410,2570 c 0,-5 5,-10 11,-10 5,0 7,5 4,10 -3,6 -8,10 -11,10 -2,0 -4,-4 -4,-10 z"
         id="path11996" />
      <path
         inkscape:connector-curvature="0"
         d="m 1275,2560 c -3,-5 1,-10 9,-10 9,0 16,5 16,10 0,6 -4,10 -9,10 -6,0 -13,-4 -16,-10 z"
         id="path11998" />
      <path
         inkscape:connector-curvature="0"
         d="m 4628,2563 c 7,-3 16,-2 19,1 4,3 -2,6 -13,5 -11,0 -14,-3 -6,-6 z"
         id="path12000" />
      <path
         inkscape:connector-curvature="0"
         d="m 5010,2555 c 0,-2 9,-9 19,-14 14,-8 20,-7 24,2 3,8 -4,14 -19,15 -13,1 -24,0 -24,-3 z"
         id="path12002" />
      <path
         inkscape:connector-curvature="0"
         d="m 5075,2549 c -4,-6 -5,-12 -4,-14 10,-8 133,-9 136,0 2,6 -22,9 -63,7 -46,-3 -64,0 -60,7 4,6 5,11 2,11 -3,0 -8,-5 -11,-11 z"
         id="path12004" />
      <path
         inkscape:connector-curvature="0"
         d="m 5718,2535 c 2,-14 8,-25 13,-25 5,0 9,11 9,25 0,14 -6,25 -14,25 -9,0 -12,-8 -8,-25 z"
         id="path12006" />
      <path
         inkscape:connector-curvature="0"
         d="m 2068,2542 c 0,-4 -2,-11 -3,-17 -1,-5 -7,-23 -13,-38 -7,-16 -12,-33 -12,-38 0,-9 41,-29 61,-29 11,0 12,27 1,32 -5,2 -12,15 -15,29 -6,24 -4,26 26,26 17,0 37,-3 42,-7 14,-12 66,0 72,16 7,19 21,17 26,-3 3,-11 5,-7 6,10 1,26 -8,34 -23,20 -12,-12 -107,-14 -138,-4 -15,6 -29,7 -30,3 z"
         id="path12008" />
      <path
         inkscape:connector-curvature="0"
         d="m 3593,2534 c -4,-10 1,-22 10,-29 10,-7 17,-16 17,-20 0,-4 9,-20 21,-36 24,-34 59,-39 59,-8 0,16 4,19 23,14 19,-5 20,-4 4,5 -9,6 -21,8 -27,5 -5,-3 -18,3 -28,13 -10,10 -24,16 -32,14 -7,-3 -10,0 -6,7 11,17 -3,51 -20,51 -8,0 -17,-7 -21,-16 z"
         id="path12010" />
      <path
         inkscape:connector-curvature="0"
         d="m 3950,2542 c 0,-14 11,-21 26,-15 21,8 17,23 -6,23 -11,0 -20,-4 -20,-8 z"
         id="path12012" />
      <path
         inkscape:connector-curvature="0"
         d="m 4423,2543 c -16,-6 -17,-65 -1,-81 8,-8 8,-15 -2,-27 -20,-24 -30,-18 -30,19 0,23 -6,36 -17,40 -14,6 -15,9 -4,15 7,5 11,14 7,20 -9,14 -79,9 -99,-7 -8,-7 -21,-10 -28,-7 -31,11 -69,-48 -71,-110 -2,-36 -6,-45 -20,-45 -10,0 -21,-7 -25,-16 -7,-20 17,-37 33,-23 20,16 61,-7 72,-40 6,-17 18,-31 26,-31 19,0 20,-29 4,-116 -7,-42 -16,-64 -25,-64 -8,0 -11,5 -8,10 3,6 1,10 -4,10 -6,0 -11,-5 -11,-11 0,-7 -7,-17 -17,-24 -21,-15 221,26 295,50 51,17 54,19 48,47 -4,23 0,34 19,52 l 25,23 -30,9 c -23,7 -27,12 -20,24 8,12 13,11 38,-7 33,-24 72,-21 98,8 9,10 23,19 31,19 7,0 13,9 13,19 0,31 18,34 23,4 3,-25 4,-23 12,15 4,23 11,42 16,42 12,0 11,48 -1,52 -6,2 -14,23 -18,48 -6,36 -12,46 -30,48 -24,4 -30,-16 -10,-36 9,-9 9,-12 1,-12 -7,0 -15,5 -18,10 -3,6 -17,10 -31,10 -22,0 -28,9 -25,36 2,18 -25,35 -43,28 -9,-3 -16,-17 -16,-30 0,-17 -4,-22 -16,-17 -9,3 -20,0 -25,-8 -6,-11 -12,-9 -29,8 -11,12 -20,27 -20,33 0,5 -6,10 -14,10 -8,0 -20,2 -28,4 -7,3 -19,2 -25,-1 z m -85,-53 c -7,-11 -16,-20 -20,-20 -11,0 -10,9 5,25 18,21 29,18 15,-5 z m -52,-1 c 3,-6 -1,-18 -10,-27 -15,-15 -16,-14 -16,11 0,27 13,36 26,16 z m 308,-58 c -9,-11 -21,13 -16,32 6,22 6,22 12,-3 4,-14 6,-27 4,-29 z m -54,15 c 0,-11 -19,-15 -25,-6 -3,5 1,10 9,10 9,0 16,-2 16,-4 z m 120,-10 c 0,-11 -19,-15 -25,-6 -3,5 1,10 9,10 9,0 16,-2 16,-4 z m -168,-236 c -2,-16 -10,-30 -16,-30 -7,0 -13,13 -13,30 0,21 5,30 17,30 13,0 16,-7 12,-30 z"
         id="path12014" />
      <path
         inkscape:connector-curvature="0"
         d="m 4800,2541 c 0,-6 4,-13 10,-16 6,-3 7,1 4,9 -7,18 -14,21 -14,7 z"
         id="path12016" />
      <path
         inkscape:connector-curvature="0"
         d="m 4810,2490 c 6,-11 13,-20 16,-20 2,0 0,9 -6,20 -6,11 -13,20 -16,20 -2,0 0,-9 6,-20 z"
         id="path12018" />
      <path
         inkscape:connector-curvature="0"
         d="m 2190,2480 c 19,-13 30,-13 30,0 0,6 -10,10 -22,10 -19,0 -20,-2 -8,-10 z"
         id="path12020" />
      <path
         inkscape:connector-curvature="0"
         d="m 2165,2460 c 3,-5 -1,-10 -9,-10 -9,0 -16,-4 -16,-10 0,-5 6,-10 13,-10 8,0 8,-3 -2,-9 -21,-14 19,-19 46,-6 28,12 29,31 4,45 -25,13 -44,13 -36,0 z"
         id="path12022" />
      <path
         inkscape:connector-curvature="0"
         d="m 3960,2444 c 0,-38 123,-136 149,-119 15,9 10,54 -6,48 -14,-6 -99,53 -107,73 -7,19 -36,18 -36,-2 z"
         id="path12024" />
      <path
         inkscape:connector-curvature="0"
         d="m 4850,2445 c 7,-8 19,-15 27,-15 8,0 11,-4 8,-10 -3,-5 -1,-10 4,-10 6,0 11,-6 11,-14 0,-19 47,-56 71,-56 11,0 19,-7 19,-16 0,-8 5,-12 10,-9 6,3 15,3 21,-1 7,-4 8,-9 1,-13 -7,-4 -5,-13 4,-25 14,-19 14,-19 14,3 0,14 5,21 13,19 17,-6 17,-58 -1,-58 -7,0 -10,-5 -6,-12 5,-7 1,-9 -13,-6 -15,4 -20,1 -19,-10 3,-19 26,-29 26,-11 0,7 3,9 6,6 4,-4 1,-14 -7,-24 -12,-15 -10,-14 18,2 18,10 30,23 27,27 -3,5 0,15 6,23 6,8 8,19 4,26 -5,9 1,10 22,5 16,-4 31,-12 34,-17 4,-5 26,1 50,14 38,19 44,27 47,60 3,32 0,40 -16,44 -19,5 -18,6 7,28 l 26,22 -23,13 c -41,21 -145,27 -293,15 -63,-5 -88,-4 -88,4 0,6 -5,11 -11,11 -8,0 -8,-5 1,-15 z"
         id="path12026" />
      <path
         inkscape:connector-curvature="0"
         d="m 5327,2421 c -19,-33 -22,-45 -7,-36 6,3 10,1 10,-6 0,-24 17,5 23,39 8,40 -3,41 -26,3 z"
         id="path12028" />
      <path
         inkscape:connector-curvature="0"
         d="m 1981,2424 c 0,-11 3,-14 6,-6 3,7 2,16 -1,19 -3,4 -6,-2 -5,-13 z"
         id="path12030" />
      <path
         inkscape:connector-curvature="0"
         d="m 2335,2406 c -17,-26 -13,-46 9,-46 15,0 28,58 15,66 -5,2 -15,-7 -24,-20 z"
         id="path12032" />
      <path
         inkscape:connector-curvature="0"
         d="m 3886,2412 c -3,-5 -5,-37 -3,-70 2,-51 5,-60 20,-59 20,1 32,30 28,72 -3,32 -35,73 -45,57 z"
         id="path12034" />
      <path
         inkscape:connector-curvature="0"
         d="m 4065,2400 c 3,-5 10,-10 16,-10 5,0 9,5 9,10 0,6 -7,10 -16,10 -8,0 -12,-4 -9,-10 z"
         id="path12036" />
      <path
         inkscape:connector-curvature="0"
         d="m 1953,2350 c -12,-28 -19,-50 -17,-50 7,0 46,91 42,96 -2,2 -14,-19 -25,-46 z"
         id="path12038" />
      <path
         inkscape:connector-curvature="0"
         d="m 3805,2387 c -20,-12 -28,-57 -12,-73 4,-4 7,4 7,17 0,33 13,50 29,40 9,-6 12,-21 9,-45 -2,-22 1,-37 8,-40 8,-3 12,8 11,32 -1,20 3,46 8,56 7,16 5,18 -8,13 -9,-3 -17,-2 -17,3 0,12 -9,11 -35,-3 z"
         id="path12040" />
      <path
         inkscape:connector-curvature="0"
         d="m 2269,2374 -25,-13 -2,-208 c -2,-114 -5,-215 -7,-224 -4,-10 4,-20 20,-27 50,-23 50,-24 53,181 2,105 8,210 12,232 8,32 6,43 -8,56 -15,14 -21,14 -43,3 z"
         id="path12042" />
      <path
         inkscape:connector-curvature="0"
         d="m 3940,2359 c 0,-11 4,-18 10,-14 5,3 7,12 3,20 -7,21 -13,19 -13,-6 z"
         id="path12044" />
      <path
         inkscape:connector-curvature="0"
         d="m 3967,2374 c -12,-12 5,-32 24,-29 10,2 19,0 19,-6 0,-5 5,-9 12,-9 6,0 1,11 -12,25 -24,26 -32,29 -43,19 z"
         id="path12046" />
      <path
         inkscape:connector-curvature="0"
         d="m 6031,2357 c 2,-1 12,-9 22,-16 14,-12 17,-11 17,3 0,10 -8,16 -22,16 -12,0 -19,-1 -17,-3 z"
         id="path12048" />
      <path
         inkscape:connector-curvature="0"
         d="m 6080,2346 c 0,-8 -3,-21 -6,-30 -10,-27 12,-18 24,9 15,33 15,35 -3,35 -8,0 -15,-6 -15,-14 z"
         id="path12050" />
      <path
         inkscape:connector-curvature="0"
         d="m 2158,2333 c -2,-5 -2,-98 1,-208 5,-180 8,-200 24,-203 16,-3 17,9 17,155 0,87 3,182 6,211 7,51 6,52 -19,52 -14,0 -27,-3 -29,-7 z"
         id="path12052" />
      <path
         inkscape:connector-curvature="0"
         d="m 2350,2327 c 0,-10 22,-48 38,-65 18,-20 15,-42 -8,-42 -27,0 -25,-10 9,-43 35,-32 40,-33 38,-7 -1,11 -5,20 -9,20 -12,0 -10,34 3,47 12,12 -4,53 -21,53 -5,0 -18,10 -30,22 -11,12 -20,19 -20,15 z"
         id="path12054" />
      <path
         inkscape:connector-curvature="0"
         d="m 3990,2322 c 0,-4 9,-13 20,-19 16,-11 18,-10 14,1 -6,15 -34,30 -34,18 z"
         id="path12056" />
      <path
         inkscape:connector-curvature="0"
         d="m 3711,2278 c -1,-16 4,-28 9,-28 12,0 12,8 0,35 -8,18 -9,17 -9,-7 z"
         id="path12058" />
      <path
         inkscape:connector-curvature="0"
         d="m 3990,2284 c 0,-8 5,-12 10,-9 6,4 8,11 5,16 -9,14 -15,11 -15,-7 z"
         id="path12060" />
      <path
         inkscape:connector-curvature="0"
         d="m 4162,2268 c -15,-24 -21,-57 -25,-118 -2,-47 -7,-93 -11,-102 -6,-13 -3,-15 11,-12 14,4 18,16 20,52 1,26 8,84 15,130 8,45 13,82 12,82 -1,0 -11,-15 -22,-32 z"
         id="path12062" />
      <path
         inkscape:connector-curvature="0"
         d="m 5282,2270 c 0,-19 2,-27 5,-17 2,9 2,25 0,35 -3,9 -5,1 -5,-18 z"
         id="path12064" />
      <path
         inkscape:connector-curvature="0"
         d="m 4695,2229 c -17,-38 -81,-99 -103,-99 -5,0 -17,-11 -26,-25 -9,-13 -31,-28 -49,-33 -17,-5 -31,-14 -30,-20 5,-24 -201,-38 -215,-15 -6,10 -37,5 -133,-21 -68,-19 -135,-37 -149,-40 -15,-4 -36,-24 -54,-52 -25,-39 -28,-52 -24,-101 4,-47 1,-62 -18,-90 -12,-19 -20,-41 -17,-53 3,-12 -6,-34 -26,-59 -38,-48 -38,-57 -4,-93 l 27,-28 -23,-24 -23,-24 32,-17 c 33,-17 33,-17 10,-28 -27,-14 -60,-72 -60,-106 0,-13 -4,-40 -10,-60 -18,-67 -62,-266 -71,-326 -11,-67 -7,-97 20,-170 24,-63 55,-194 48,-201 -2,-3 -10,9 -16,27 -18,53 -24,25 -7,-39 21,-83 53,-148 87,-176 15,-13 26,-26 24,-28 -2,-2 4,-4 13,-4 9,-1 26,-5 36,-9 14,-6 17,-5 12,3 -8,13 8,16 61,13 17,-1 47,2 66,7 48,13 59,3 60,-57 1,-28 3,-51 4,-51 2,0 12,18 23,41 36,70 32,36 -5,-43 -19,-41 -40,-97 -47,-124 -7,-27 -17,-52 -22,-56 -5,-3 -10,-16 -11,-27 l -2,-21 954,0 c 629,0 952,4 948,10 -3,6 -1,10 5,10 7,0 8,6 0,19 -5,11 -10,30 -10,43 1,17 5,13 15,-16 8,-22 12,-43 9,-47 -2,-4 1,-11 7,-15 9,-5 10,2 6,25 -4,20 -3,30 3,26 6,-3 10,-17 10,-31 0,-22 4,-24 42,-24 32,0 39,3 31,11 -9,9 -8,19 3,41 12,22 12,29 2,32 -7,2 -28,9 -47,15 -45,15 -54,14 -47,-4 3,-8 1,-15 -4,-15 -5,0 -14,28 -21,62 -9,44 -14,56 -19,42 -5,-13 -9,-5 -14,31 -6,43 -27,135 -41,185 -5,16 -5,16 110,23 33,3 63,5 66,6 4,0 6,12 5,25 -1,21 -3,23 -16,12 -37,-31 -42,-25 -9,10 42,45 130,221 154,309 9,33 26,79 38,102 21,42 22,43 3,77 -10,19 -26,43 -36,53 -9,10 -19,33 -23,50 -3,17 -9,44 -12,59 -5,22 -4,25 4,14 16,-22 13,2 -4,44 -9,20 -13,47 -9,60 4,18 0,28 -15,38 -12,7 -21,19 -21,26 0,7 -10,27 -22,44 -17,22 -19,32 -10,35 20,7 14,51 -9,63 -19,11 -20,13 -4,37 17,26 13,34 -19,46 -5,2 -4,12 2,24 9,17 7,24 -13,43 l -25,23 25,25 c 29,29 31,40 10,69 -12,18 -13,31 -5,68 6,25 7,58 4,73 -10,43 -44,92 -64,92 -10,0 -49,13 -86,29 -81,34 -156,55 -296,80 -57,10 -127,26 -156,34 -68,20 -152,83 -159,119 -6,31 -23,28 -23,-3 0,-11 -3,-18 -7,-16 -5,3 -9,-5 -10,-16 -1,-18 -39,-132 -66,-197 -3,-8 -16,-49 -27,-90 -12,-41 -25,-84 -30,-95 -12,-27 -67,-201 -79,-250 -6,-22 -20,-103 -31,-179 -11,-77 -22,-141 -24,-143 -2,-2 -6,29 -10,69 -9,101 -14,130 -37,228 -51,221 -62,258 -83,295 -13,22 -44,96 -69,165 -25,69 -55,147 -66,174 -12,26 -22,63 -24,82 -1,19 -5,34 -8,34 -3,0 -14,-18 -24,-41 z m 753,-396 c -2,-14 -15,-19 -51,-21 -42,-3 -47,-1 -47,17 0,18 6,21 51,21 43,0 50,-3 47,-17 z m -1498,-46 c 0,-5 -4,-5 -10,-2 -5,3 -10,14 -10,23 0,15 2,15 10,2 5,-8 10,-19 10,-23 z m 1957,-474 c 4,-10 15,-24 25,-31 10,-7 18,-19 18,-26 0,-7 -34,-44 -77,-82 -68,-62 -81,-69 -120,-70 -23,-1 -40,2 -37,7 3,5 -2,9 -10,9 -9,0 -16,-4 -16,-9 0,-18 -75,-65 -108,-68 -29,-2 -32,0 -21,13 7,8 15,11 18,6 3,-5 20,8 36,29 17,21 36,38 43,39 7,0 15,8 19,18 3,9 17,29 31,45 14,15 21,27 14,27 -6,0 -17,-8 -24,-17 -18,-24 -95,-92 -82,-73 36,53 89,110 106,116 11,3 17,8 14,11 -9,9 14,33 31,33 10,0 12,-6 8,-20 -9,-28 -4,-26 46,20 47,43 76,50 86,23 z m 33,-167 c 0,-29 -18,-46 -51,-46 -14,0 -38,-9 -52,-20 -19,-15 -28,-17 -33,-8 -4,7 4,20 20,32 15,12 41,33 58,47 36,30 58,28 58,-5 z M 4682,1024 c 21,-4 35,-10 32,-15 -3,-5 4,-9 15,-9 10,0 26,-3 34,-6 9,-3 16,3 20,17 9,34 15,20 10,-20 -3,-19 -9,-28 -13,-21 -4,6 -25,14 -47,17 -32,4 -44,0 -71,-22 -34,-28 -41,-60 -21,-96 8,-16 13,-18 25,-8 20,17 17,28 -6,22 -16,-4 -20,0 -20,19 0,32 4,35 42,30 30,-5 31,-5 12,-20 -16,-12 -16,-14 -1,-9 19,7 23,-3 6,-20 -9,-9 -7,-10 10,-6 15,4 21,1 21,-11 0,-10 -4,-14 -10,-11 -5,3 -10,-1 -10,-9 0,-22 13,-20 27,4 8,12 9,21 3,25 -19,12 -11,26 9,16 19,-11 31,-5 31,13 0,6 -5,4 -10,-4 -5,-8 -10,-10 -10,-4 0,5 5,15 10,20 7,7 5,17 -5,30 -16,19 -16,19 -10,-3 7,-26 -12,-41 -29,-22 -6,8 -7,11 -2,7 14,-11 26,-10 26,2 0,6 -7,10 -15,10 -9,0 -12,6 -9,15 8,19 31,19 50,1 10,-11 13,-39 11,-120 -2,-58 -5,-108 -8,-110 -2,-2 -15,-2 -29,1 -23,4 -25,8 -22,44 4,36 2,39 -20,39 -13,0 -33,6 -43,14 -17,12 -21,12 -32,-3 -11,-14 -12,-14 -13,0 0,12 -8,15 -32,12 -54,-7 -66,-14 -43,-24 13,-5 2,-6 -30,-2 -59,7 -195,69 -168,76 13,3 11,5 -6,6 -23,1 -23,2 -7,14 10,7 19,25 19,40 2,29 34,46 86,48 14,0 55,9 91,19 73,20 98,23 152,14 z m 38,-64 c -11,-21 -50,-28 -50,-9 0,6 7,9 15,5 9,-3 15,0 15,9 0,8 7,15 15,15 13,0 14,-4 5,-20 z m 525,-554 c -4,-20 -11,-36 -16,-36 -5,0 -6,-6 -3,-14 7,-17 -18,-67 -42,-87 -16,-12 -17,-12 -12,1 4,8 22,52 40,96 18,45 34,81 36,79 2,-2 0,-19 -3,-39 z M 4153,305 c -3,-9 -8,-14 -10,-11 -3,3 -2,9 2,15 9,16 15,13 8,-4 z M 5967,118 c -3,-7 -5,-2 -5,12 0,14 2,19 5,13 2,-7 2,-19 0,-25 z"
         id="path12066" />
      <path
         inkscape:connector-curvature="0"
         d="m 5859,1253 c -13,-16 -12,-17 4,-4 9,7 17,15 17,17 0,8 -8,3 -21,-13 z"
         id="path12068" />
      <path
         inkscape:connector-curvature="0"
         d="m 5815,1220 c -3,-5 -1,-10 4,-10 6,0 11,5 11,10 0,6 -2,10 -4,10 -3,0 -8,-4 -11,-10 z"
         id="path12070" />
      <path
         inkscape:connector-curvature="0"
         d="m 4677,853 c -10,-9 -9,-23 2,-23 5,0 11,7 15,15 5,15 -5,20 -17,8 z"
         id="path12072" />
      <path
         inkscape:connector-curvature="0"
         d="m 3752,2111 c -1,-178 -12,-502 -18,-512 -2,-4 0,-10 6,-14 6,-4 7,-12 1,-24 -6,-10 -9,-26 -9,-37 1,-17 -3,-131 -17,-474 l -3,-95 18,75 c 10,41 21,104 24,140 9,111 18,251 22,355 2,55 6,132 8,170 1,39 7,151 11,250 5,112 12,189 20,205 l 13,25 8,-29 c 6,-25 -1,-323 -12,-474 -3,-47 -1,-52 11,-42 8,7 15,22 15,34 0,33 26,97 35,89 5,-5 4,-1 -3,8 -6,9 -9,19 -6,22 3,3 8,83 10,178 2,109 8,177 15,186 9,10 6,19 -17,38 -16,14 -36,23 -46,19 -9,-2 -19,0 -22,5 -4,5 -19,16 -35,24 l -29,14 0,-136 z"
         id="path12074" />
      <path
         inkscape:connector-curvature="0"
         d="m 4915,2243 c 26,-24 88,-65 73,-47 -9,10 -32,28 -50,38 -18,10 -28,15 -23,9 z"
         id="path12076" />
      <path
         inkscape:connector-curvature="0"
         d="m 4235,2203 c -15,-82 -15,-100 0,-100 10,0 13,7 9,21 -2,12 -1,42 4,69 5,26 6,47 2,47 -4,0 -11,-17 -15,-37 z"
         id="path12078" />
      <path
         inkscape:connector-curvature="0"
         d="m 5115,2230 c -3,-5 -2,-10 4,-10 5,0 13,5 16,10 3,6 2,10 -4,10 -5,0 -13,-4 -16,-10 z"
         id="path12080" />
      <path
         inkscape:connector-curvature="0"
         d="m 931,2204 c 0,-11 3,-14 6,-6 3,7 2,16 -1,19 -3,4 -6,-2 -5,-13 z"
         id="path12082" />
      <path
         inkscape:connector-curvature="0"
         d="m 1829,2183 c -13,-16 -12,-17 4,-4 9,7 17,15 17,17 0,8 -8,3 -21,-13 z"
         id="path12084" />
      <path
         inkscape:connector-curvature="0"
         d="m 4057,2185 c -5,-10 0,-15 14,-15 12,0 19,5 17,12 -6,18 -25,20 -31,3 z"
         id="path12086" />
      <path
         inkscape:connector-curvature="0"
         d="m 3973,2178 c -6,-7 -11,-51 -12,-96 0,-46 -4,-88 -7,-94 -4,-6 2,-7 17,-3 13,4 25,8 26,9 1,0 6,35 11,76 6,41 12,84 14,95 4,24 -33,33 -49,13 z"
         id="path12088" />
      <path
         inkscape:connector-curvature="0"
         d="m 4946,2142 c -2,-4 4,-19 15,-32 l 19,-25 0,26 c 0,25 -24,47 -34,31 z"
         id="path12090" />
      <path
         inkscape:connector-curvature="0"
         d="m 5103,2133 c 4,-6 -4,-33 -19,-58 l -26,-47 45,26 c 24,14 47,23 50,19 12,-11 7,11 -6,27 -17,21 -52,48 -44,33 z"
         id="path12092" />
      <path
         inkscape:connector-curvature="0"
         d="m 4925,2110 c -3,-5 1,-10 9,-10 9,0 16,5 16,10 0,6 -4,10 -9,10 -6,0 -13,-4 -16,-10 z"
         id="path12094" />
      <path
         inkscape:connector-curvature="0"
         d="m 2356,2102 c -3,-5 -6,-59 -7,-122 -1,-99 1,-115 17,-127 26,-19 51,-16 49,6 0,10 2,58 7,107 7,87 7,89 -19,116 -28,29 -38,34 -47,20 z"
         id="path12096" />
      <path
         inkscape:connector-curvature="0"
         d="m 1545,2030 c -18,-19 -17,-20 3,-20 12,0 23,-9 27,-21 5,-14 10,-18 17,-11 7,7 6,20 -3,41 -16,36 -20,37 -44,11 z"
         id="path12098" />
      <path
         inkscape:connector-curvature="0"
         d="m 5002,1966 c -33,-96 -28,-134 11,-81 16,23 32,145 18,145 -3,0 -16,-29 -29,-64 z"
         id="path12100" />
      <path
         inkscape:connector-curvature="0"
         d="m 3694,1982 c -5,-4 -20,-28 -31,-53 -12,-25 -28,-51 -37,-58 -10,-8 -14,-22 -10,-35 3,-12 0,-68 -5,-124 -10,-98 -8,-132 10,-132 4,0 8,49 8,110 1,115 7,160 23,160 5,0 7,-103 4,-262 -2,-145 -1,-278 2,-297 5,-33 6,-33 14,-11 6,15 5,26 -3,31 -8,5 -8,8 0,10 6,2 13,33 16,69 8,101 26,592 23,596 -2,1 -8,0 -14,-4 z"
         id="path12102" />
      <path
         inkscape:connector-curvature="0"
         d="m 4940,1968 c -12,-22 -12,-22 6,-6 10,10 15,20 12,24 -4,3 -12,-5 -18,-18 z"
         id="path12104" />
      <path
         inkscape:connector-curvature="0"
         d="m 6140,1881 c 0,-11 -3,-27 -6,-35 -5,-12 -2,-15 10,-10 17,7 23,64 6,64 -5,0 -10,-9 -10,-19 z"
         id="path12106" />
      <path
         inkscape:connector-curvature="0"
         d="m 312,1830 c 0,-14 2,-19 5,-12 2,6 2,18 0,25 -3,6 -5,1 -5,-13 z"
         id="path12108" />
      <path
         inkscape:connector-curvature="0"
         d="m 3612,1510 c 0,-22 4,-40 9,-40 12,0 12,67 0,75 -6,3 -10,-12 -9,-35 z"
         id="path12110" />
      <path
         inkscape:connector-curvature="0"
         d="m 3810,1505 c 0,-27 6,-30 29,-16 12,8 12,12 2,25 -19,23 -31,20 -31,-9 z"
         id="path12112" />
      <path
         inkscape:connector-curvature="0"
         d="m 3809,1427 c 0,-7 -2,-22 -3,-34 -2,-13 0,-23 4,-23 12,0 30,24 30,41 0,19 -30,35 -31,16 z"
         id="path12114" />
      <path
         inkscape:connector-curvature="0"
         d="m 3587,1372 c -24,-34 -27,-48 -29,-138 -1,-55 2,-105 6,-112 4,-7 2,-12 -5,-12 -15,0 -3,-70 17,-90 12,-12 14,-9 15,25 4,126 8,179 19,263 7,51 10,95 8,98 -3,2 -17,-13 -31,-34 z"
         id="path12116" />
      <path
         inkscape:connector-curvature="0"
         d="m 3,1198 c 2,-62 7,-124 11,-138 5,-14 8,-34 7,-45 0,-10 5,-25 11,-33 17,-20 14,-103 -4,-113 -14,-8 -14,-14 -2,-46 7,-21 13,-45 14,-54 0,-29 54,-79 78,-73 25,7 37,-22 23,-57 -5,-14 -5,-51 -1,-84 4,-33 8,-53 9,-45 0,8 8,105 16,215 13,169 39,451 48,519 2,16 -13,22 -98,42 -55,12 -104,23 -108,23 -5,1 -7,-50 -4,-111 z"
         id="path12118" />
      <path
         inkscape:connector-curvature="0"
         d="m 6188,1236 c -3,-13 3,-43 13,-67 10,-24 18,-39 18,-32 1,6 -4,24 -10,40 -7,15 -11,40 -10,56 2,33 -5,36 -11,3 z"
         id="path12120" />
      <path
         inkscape:connector-curvature="0"
         d="m 6210,1235 c 1,-26 2,-28 11,-12 8,14 8,22 0,30 -8,8 -11,3 -11,-18 z"
         id="path12122" />
      <path
         inkscape:connector-curvature="0"
         d="m 6380,1245 c 0,-8 5,-15 10,-15 6,0 10,7 10,15 0,8 -4,15 -10,15 -5,0 -10,-7 -10,-15 z"
         id="path12124" />
      <path
         inkscape:connector-curvature="0"
         d="m 3656,1241 c -4,-7 -5,-15 -2,-18 9,-9 19,4 14,18 -4,11 -6,11 -12,0 z"
         id="path12126" />
      <path
         inkscape:connector-curvature="0"
         d="m 6320,1190 c 0,-5 5,-10 11,-10 5,0 7,5 4,10 -3,6 -8,10 -11,10 -2,0 -4,-4 -4,-10 z"
         id="path12128" />
      <path
         inkscape:connector-curvature="0"
         d="m 3558,979 c -10,-5 -18,-16 -18,-24 0,-7 -6,-16 -12,-19 -10,-5 -10,-7 0,-12 6,-3 12,-13 12,-22 0,-23 29,19 40,58 9,32 5,35 -22,19 z"
         id="path12130" />
      <path
         inkscape:connector-curvature="0"
         d="m 3703,915 c 0,-22 2,-30 4,-17 2,12 2,30 0,40 -3,9 -5,-1 -4,-23 z"
         id="path12132" />
      <path
         inkscape:connector-curvature="0"
         d="m 3699,810 c -5,-101 -7,-125 -9,-130 -1,-3 -3,-34 -4,-70 -2,-72 9,-111 30,-103 9,3 14,-3 15,-18 l 0,-24 11,25 c 12,28 11,115 -2,170 l -8,35 -2,-40 c -2,-22 -3,-53 -4,-68 -1,-16 2,-31 6,-33 7,-5 -14,-34 -25,-34 -2,0 -4,11 -4,25 0,14 3,25 8,25 5,0 4,12 -2,27 -7,19 -7,28 2,34 10,6 10,19 2,55 -10,41 -9,50 5,61 10,7 12,12 5,13 -7,0 -10,6 -7,13 2,7 0,31 -5,52 l -9,40 -3,-55 z"
         id="path12134" />
      <path
         inkscape:connector-curvature="0"
         d="m 305,721 c -3,-5 -1,-12 5,-16 5,-3 10,1 10,9 0,18 -6,21 -15,7 z"
         id="path12136" />
      <path
         inkscape:connector-curvature="0"
         d="m 3731,714 c 0,-11 3,-14 6,-6 3,7 2,16 -1,19 -3,4 -6,-2 -5,-13 z"
         id="path12138" />
      <path
         inkscape:connector-curvature="0"
         d="m 290,516 c 0,-9 5,-16 10,-16 6,0 10,4 10,9 0,6 -4,13 -10,16 -5,3 -10,-1 -10,-9 z"
         id="path12140" />
      <path
         inkscape:connector-curvature="0"
         d="m 277,453 c -3,-5 -3,-20 -1,-35 1,-16 -1,-28 -6,-28 -4,0 -6,-9 -3,-20 10,-37 28,-14 31,38 3,46 -8,68 -21,45 z"
         id="path12142" />
      <path
         inkscape:connector-curvature="0"
         d="m 3710,439 c 0,-5 5,-7 10,-4 6,3 10,8 10,11 0,2 -4,4 -10,4 -5,0 -10,-5 -10,-11 z"
         id="path12144" />
      <path
         inkscape:connector-curvature="0"
         d="m 3521,414 c 0,-11 3,-14 6,-6 3,7 2,16 -1,19 -3,4 -6,-2 -5,-13 z"
         id="path12146" />
      <path
         inkscape:connector-curvature="0"
         d="m 28,373 c 7,-3 16,-2 19,1 4,3 -2,6 -13,5 -11,0 -14,-3 -6,-6 z"
         id="path12148" />
      <path
         inkscape:connector-curvature="0"
         d="m 3517,374 c -7,-11 -2,-53 8,-62 12,-13 17,10 9,40 -6,19 -13,28 -17,22 z"
         id="path12150" />
      <path
         inkscape:connector-curvature="0"
         d="m 4070,308 c 0,-19 2,-20 10,-8 13,19 13,30 0,30 -5,0 -10,-10 -10,-22 z"
         id="path12152" />
      <path
         inkscape:connector-curvature="0"
         d="m 3860,265 c -5,-14 -13,-38 -16,-53 -4,-15 -15,-46 -25,-69 -10,-23 -25,-65 -33,-93 l -15,-50 135,0 c 102,0 133,3 132,13 -2,6 -5,14 -9,17 -3,3 -13,28 -23,55 -22,60 -39,75 -84,75 -19,0 -31,4 -27,10 3,6 17,10 30,10 27,0 67,44 58,66 -6,17 -65,44 -94,44 -12,0 -23,-10 -29,-25 z"
         id="path12154" />
      <path
         inkscape:connector-curvature="0"
         d="m 6279,244 c -9,-11 -10,-20 -2,-32 12,-19 73,-29 73,-12 0,6 -4,8 -10,5 -6,-4 -10,7 -10,24 0,24 -4,31 -19,31 -10,0 -24,-7 -32,-16 z"
         id="path12156" />
      <path
         inkscape:connector-curvature="0"
         d="m 3272,169 c -40,-36 -41,-56 -2,-64 51,-11 28,-45 -30,-45 -38,1 -79,24 -61,35 6,3 11,12 11,20 0,10 -14,12 -57,8 -77,-6 -83,-8 -83,-36 0,-33 -49,-43 -96,-21 -41,20 -51,32 -30,40 9,3 16,10 16,14 0,12 -45,19 -130,22 -41,1 -88,7 -105,13 -29,11 -173,11 -184,-1 -3,-3 0,-8 6,-12 20,-13 26,-57 9,-71 -9,-8 -16,-26 -16,-42 l 0,-29 450,0 c 293,0 450,3 450,10 0,6 -4,10 -10,10 -5,0 -10,9 -10,19 0,10 -7,22 -16,25 -10,4 -13,13 -10,26 16,56 17,65 7,50 -9,-12 -11,-11 -11,6 0,50 -54,62 -98,23 z m -506,-45 c 16,-4 20,-11 16,-30 -4,-20 -10,-24 -42,-24 -21,0 -43,6 -49,14 -10,12 -7,18 16,30 32,18 32,17 59,10 z"
         id="path12158" />
      <path
         inkscape:connector-curvature="0"
         d="m 6259,182 c 9,-17 7,-23 -14,-36 -13,-9 -29,-16 -35,-16 -5,0 -10,-7 -10,-15 0,-9 -9,-15 -24,-15 -31,0 -41,-15 -41,-62 l 0,-38 54,0 c 50,0 53,1 35,14 -14,11 -16,18 -8,26 15,15 44,2 44,-21 0,-16 8,-19 53,-19 33,0 47,3 38,9 -10,6 -12,19 -7,45 7,38 -2,56 -36,69 -9,3 -21,21 -26,38 -4,18 -14,35 -21,37 -10,3 -11,0 -2,-16 z"
         id="path12160" />
      <path
         inkscape:connector-curvature="0"
         d="m 3500,130 c 0,-27 4,-50 9,-50 12,0 17,35 12,73 -6,46 -21,30 -21,-23 z"
         id="path12162" />
      <path
         inkscape:connector-curvature="0"
         d="m 4060,124 c 0,-8 5,-12 10,-9 6,3 10,10 10,16 0,5 -4,9 -10,9 -5,0 -10,-7 -10,-16 z"
         id="path12164" />
      <path
         inkscape:connector-curvature="0"
         d="m 2360,40 c 0,-30 4,-40 16,-40 11,0 14,5 10,16 -3,9 -6,27 -6,40 0,13 -4,24 -10,24 -5,0 -10,-18 -10,-40 z"
         id="path12166" />
      <path
         inkscape:connector-curvature="0"
         d="m 3501,24 c 0,-11 3,-14 6,-6 3,7 2,16 -1,19 -3,4 -6,-2 -5,-13 z"
         id="path12168" />
    </g>
  </g>
  <g
     inkscape:groupmode="layer"
     id="layer2"
     inkscape:label="Layer 2">
    <text
       xml:space="preserve"
       style="color:#000000;font-style:normal;font-variant:normal;font-weight:normal;font-stretch:normal;font-size:16.25px;line-height:125%;font-family:sans-serif;-inkscape-font-specification:'sans-serif, Normal';text-align:start;letter-spacing:0px;word-spacing:0px;writing-mode:lr-tb;text-anchor:start;clip-rule:nonzero;display:inline;overflow:visible;visibility:visible;opacity:1;isolation:auto;mix-blend-mode:normal;color-interpolation:sRGB;color-interpolation-filters:linearRGB;solid-color:#000000;solid-opacity:1;fill:#000000;fill-opacity:1;fill-rule:nonzero;stroke:none;stroke-width:1px;stroke-linecap:butt;stroke-linejoin:miter;stroke-miterlimit:4;stroke-dasharray:none;stroke-dashoffset:0;stroke-opacity:1;color-rendering:auto;image-rendering:auto;shape-rendering:auto;text-rendering:auto;enable-background:accumulate"
       x="19.599615"
       y="216.23874"
       id="text5949"
       sodipodi:linespacing="125%"><tspan
         sodipodi:role="line"
         x="19.599615"
         y="216.23874"
         id="tspan5951"
         style="font-size:20px;fill:#f4511e"><tspan
           x="19.599615"
           y="216.23874"
           style="font-style:normal;font-variant:normal;font-weight:normal;font-stretch:normal;font-size:20px;font-family:'Noto Serif';-inkscape-font-specification:'Noto Serif';fill:#f4511e"
           id="tspan5953">The Democratic Party has been crushing the GOP </tspan></tspan><tspan
         sodipodi:role="line"
         x="19.599615"
         y="241.23874"
         id="tspan5955"
         style="font-size:20px;fill:#f4511e"><tspan
           x="19.599615"
           y="241.23874"
           style="font-style:normal;font-variant:normal;font-weight:normal;font-stretch:normal;font-size:20px;font-family:'Noto Serif';-inkscape-font-specification:'Noto Serif';fill:#f4511e"
           id="tspan5957">for the past eight years in terms of Americans who </tspan></tspan><tspan
         sodipodi:role="line"
         x="19.599615"
         y="266.23874"
         id="tspan5959"
         style="font-size:20px;fill:#f4511e"><tspan
           x="19.599615"
           y="266.23874"
           style="font-style:normal;font-variant:normal;font-weight:normal;font-stretch:normal;font-size:20px;font-family:'Noto Serif';-inkscape-font-specification:'Noto Serif';fill:#f4511e"
           id="tspan5961">affiliate with their party. </tspan></tspan><tspan
         sodipodi:role="line"
         x="19.599615"
         y="291.23874"
         id="tspan5965"
         style="font-size:20px" /></text>
    <text
       xml:space="preserve"
       style="color:#000000;font-style:normal;font-variant:normal;font-weight:normal;font-stretch:normal;font-size:16.25px;line-height:125%;font-family:sans-serif;-inkscape-font-specification:'sans-serif, Normal';text-align:start;letter-spacing:0px;word-spacing:0px;writing-mode:lr-tb;text-anchor:start;clip-rule:nonzero;display:inline;overflow:visible;visibility:visible;opacity:1;isolation:auto;mix-blend-mode:normal;color-interpolation:sRGB;color-interpolation-filters:linearRGB;solid-color:#000000;solid-opacity:1;fill:#000000;fill-opacity:1;fill-rule:nonzero;stroke:none;stroke-width:1px;stroke-linecap:butt;stroke-linejoin:miter;stroke-miterlimit:4;stroke-dasharray:none;stroke-dashoffset:0;stroke-opacity:1;color-rendering:auto;image-rendering:auto;shape-rendering:auto;text-rendering:auto;enable-background:accumulate"
       x="156.85898"
       y="313.78915"
       id="text5969"
       sodipodi:linespacing="125%"><tspan
         sodipodi:role="line"
         x="156.85898"
         y="313.78915"
         id="tspan5971"
         style="fill:#212121"><tspan
           x="156.85898"
           y="313.78915"
           style="font-style:normal;font-variant:normal;font-weight:normal;font-stretch:normal;font-family:'Noto Sans';-inkscape-font-specification:'Noto Sans';fill:#212121"
           id="tspan5973">But that means a whole lot less when you look at the portion </tspan></tspan><tspan
         sodipodi:role="line"
         x="156.85898"
         y="334.10165"
         id="tspan5975"
         style="fill:#212121"><tspan
           x="156.85898"
           y="334.10165"
           style="font-style:normal;font-variant:normal;font-weight:normal;font-stretch:normal;font-family:'Noto Sans';-inkscape-font-specification:'Noto Sans';fill:#212121"
           id="tspan5977">of Americans who consider themselves independent. </tspan></tspan></text>
  </g>
</svg>
